<svg width="365" height="250" viewBox="0 0 365 250" fill="none" xmlns="http://www.w3.org/2000/svg">
<g clip-path="url(#clip0_284_1758)">
<g filter="url(#filter0_d_284_1758)">
<path d="M299 21H66C43.3563 21 25 39.3563 25 62V180C25 202.644 43.3563 221 66 221H299C321.644 221 340 202.644 340 180V62C340 39.3563 321.644 21 299 21Z" fill="#F97474"/>
</g>
<g clip-path="url(#clip1_284_1758)">
<path fill-rule="evenodd" clip-rule="evenodd" d="M282.868 83.8769C275.585 76.5509 265.535 72 254.482 72C243.43 72 233.379 76.5509 226.097 83.8769C225.29 84.6889 223.427 83.6984 221.307 83.7698C198.403 84.5283 195.724 113.984 204.967 123.621C203.655 131.233 210.183 137.042 214.299 136.649C214.272 134.811 214.308 132.982 214.299 131.17C209.252 129.689 208.56 120.694 214.272 118.562V120.882C214.281 120.471 214.29 120.061 214.299 119.65V136.569C214.299 147.687 218.823 157.797 226.106 165.123C233.388 172.449 243.438 177 254.491 177C265.544 177 275.594 172.449 282.876 165.123C290.159 157.797 294.683 147.687 294.683 136.569V118.33C294.71 119.168 294.727 120.025 294.745 120.882V118.562C300.458 120.694 299.739 129.689 294.683 131.17C294.674 132.982 294.701 134.802 294.683 136.64C298.799 137.033 305.363 131.224 304.05 123.612C311.98 115.349 311.138 92.4789 296.262 85.6794C289.104 82.4224 285.635 86.6609 282.868 83.8769ZM268.001 103.24C267.052 103.24 266.289 102.464 266.289 101.509C266.289 100.554 267.06 99.787 268.01 99.787C270.848 99.796 273.447 100.34 275.78 101.438C278.131 102.553 280.198 104.222 281.936 106.497C282.513 107.256 282.38 108.336 281.626 108.916C280.872 109.496 279.798 109.362 279.213 108.603C277.811 106.774 276.17 105.435 274.317 104.561C272.454 103.686 270.334 103.249 268.001 103.24ZM246.543 157.083C245.825 156.7 245.55 155.798 245.931 155.076C246.313 154.353 247.208 154.076 247.927 154.46C250.198 155.673 252.433 156.289 254.633 156.298C256.824 156.307 259.033 155.7 261.233 154.478C261.942 154.085 262.838 154.344 263.237 155.067C263.628 155.78 263.37 156.682 262.652 157.083C260.008 158.556 257.338 159.269 254.633 159.269C251.919 159.252 249.222 158.52 246.543 157.083ZM268.125 150.034C266.652 150.534 265.127 150.962 263.566 151.31C261.96 151.756 260.47 152.033 259.157 152.059C257.658 152.095 256.372 151.81 255.343 151.123C255.032 150.908 254.748 150.685 254.5 150.444C254.252 150.685 253.977 150.908 253.657 151.123C252.628 151.81 251.342 152.095 249.843 152.059C248.53 152.033 247.049 151.756 245.434 151.31C243.873 150.971 242.347 150.543 240.875 150.034C239.411 149.534 237.974 148.954 236.573 148.303C235.899 147.99 235.624 147.223 235.97 146.598C236.174 146.224 236.546 145.983 236.963 145.92C237.708 145.804 238.311 145.715 238.87 145.644L238.915 145.635C240.715 145.385 242.108 145.189 243.793 144.51C244.272 144.314 244.734 144.1 245.204 143.886C247.9 142.628 250.854 141.253 253.799 143.609C254.056 143.814 254.287 144.029 254.491 144.252C254.704 144.029 254.935 143.814 255.183 143.609C258.128 141.253 261.082 142.628 263.787 143.886C264.257 144.109 264.719 144.323 265.198 144.51C266.892 145.189 268.276 145.385 270.076 145.635L270.121 145.644C270.68 145.724 271.274 145.804 272.028 145.92C272.445 145.983 272.817 146.224 273.021 146.598C273.359 147.223 273.092 147.99 272.418 148.303C271.026 148.954 269.589 149.534 268.125 150.034ZM250.943 136.051C250.349 135.551 250.269 134.659 250.765 134.061C251.262 133.463 252.149 133.383 252.744 133.883C253.444 134.472 254.119 134.784 254.757 134.793C255.405 134.802 256.105 134.507 256.868 133.874C257.463 133.383 258.35 133.463 258.838 134.07C259.325 134.668 259.246 135.56 258.642 136.051C257.347 137.122 256.043 137.622 254.722 137.604C253.4 137.595 252.14 137.059 250.943 136.051ZM231.481 113.502C230.922 113.725 230.301 113.377 230.115 112.735C229.92 112.092 230.222 111.387 230.789 111.173C232.963 110.316 235.145 109.924 237.336 109.942C239.509 109.96 241.682 110.388 243.847 111.173C244.414 111.378 244.725 112.065 244.547 112.717C244.37 113.359 243.767 113.725 243.199 113.52C242.48 113.261 241.762 113.038 241.043 112.869C241.114 113.127 241.15 113.404 241.15 113.689C241.15 115.367 239.802 116.723 238.134 116.723C236.466 116.723 235.118 115.367 235.118 113.689C235.118 113.279 235.198 112.886 235.349 112.529C234.054 112.672 232.767 112.993 231.481 113.502ZM266.555 112.592C266.431 112.931 266.333 112.645 266.333 113.672C266.333 114.698 267.681 116.706 269.349 116.706C271.017 116.706 272.365 115.349 272.365 113.672C272.365 113.19 272.25 112.735 272.055 112.333C273.376 112.476 274.707 112.77 276.046 113.208C276.623 113.395 277.217 113.011 277.377 112.36C277.536 111.709 277.208 111.021 276.632 110.834C274.45 110.12 272.276 109.763 270.103 109.763C267.939 109.763 265.783 110.129 263.654 110.834C263.087 111.021 262.758 111.709 262.918 112.36C263.078 113.011 263.681 113.386 264.249 113.199C265.02 112.949 265.801 112.753 266.555 112.592ZM240.919 100.135C241.868 100.09 242.667 100.831 242.711 101.786C242.755 102.741 242.019 103.544 241.07 103.588C238.436 103.713 236.191 104.249 234.311 105.159C232.483 106.051 230.984 107.318 229.796 108.924C229.228 109.692 228.155 109.852 227.392 109.281C226.629 108.71 226.469 107.631 227.037 106.863C228.554 104.802 230.47 103.187 232.812 102.036C235.109 100.929 237.806 100.278 240.919 100.135ZM254.482 77.2915C244.884 77.2915 236.147 81.2445 229.822 87.6157C223.489 93.9869 219.559 102.767 219.559 112.422V136.569C219.559 146.224 223.489 155.013 229.822 161.375C236.156 167.747 244.884 171.7 254.482 171.7C264.08 171.7 272.817 167.747 279.142 161.375C285.476 155.004 289.405 146.224 289.405 136.569V112.422C289.405 102.767 285.476 93.978 279.142 87.6157C272.817 81.2445 264.08 77.2915 254.482 77.2915Z" fill="white"/>
</g>
<g clip-path="url(#clip2_284_1758)">
<path fill-rule="evenodd" clip-rule="evenodd" d="M101.289 117.604C101.097 118.949 100.879 120.333 100.692 121.634L100.914 124.117C101.626 124.191 102.149 124.609 102.511 125.259C102.948 126.055 103.074 127.224 102.961 128.507C102.852 129.72 102.533 131.06 102.066 132.26C101.241 134.387 99.9236 136.14 98.3831 136.338C98.2173 136.883 98.0515 137.445 97.8944 137.981C97.1045 140.667 96.4848 142.776 94.8658 144.841C93.0635 147.14 90.7332 148.897 88.2676 150.093C85.5576 151.407 82.6643 152.053 80.094 152C77.672 151.947 74.9096 151.266 72.3 149.992C69.9217 148.832 67.6525 147.179 65.8633 145.07C63.882 142.736 63.0573 140.262 61.9881 137.045C61.8615 136.663 61.7306 136.272 61.6084 135.907C60.2513 135.89 59.1079 134.73 58.3006 133.117C57.6722 131.864 57.2358 130.322 57.0743 128.894C56.9085 127.399 57.0481 125.993 57.5849 125.101C57.9646 124.473 58.5057 124.077 59.217 124.024L59.4352 121.81C59.1559 120.096 58.8243 118.294 58.5799 116.571C55.2153 92.8496 105.178 90.437 101.289 117.604ZM74.6871 143.804C74.3554 143.536 74.3031 143.053 74.5649 142.719C74.8311 142.385 75.3111 142.332 75.6428 142.596C77.2356 143.879 78.7237 144.507 80.1114 144.503C81.4642 144.499 82.769 143.875 84.0215 142.644C84.327 142.345 84.8114 142.354 85.1081 142.657C85.4048 142.965 85.3961 143.453 85.095 143.751C83.5502 145.268 81.8875 146.041 80.1158 146.045C78.3702 146.054 76.5636 145.312 74.6871 143.804ZM77.768 138.904C77.4538 138.614 77.432 138.126 77.7156 137.81C78.0037 137.494 78.488 137.472 78.8022 137.757C79.195 138.118 79.5659 138.289 79.9107 138.289C80.2598 138.285 80.6395 138.1 81.0453 137.749C81.3682 137.467 81.8526 137.502 82.1276 137.828C82.4068 138.153 82.3719 138.641 82.049 138.918C81.3682 139.511 80.6569 139.827 79.9238 139.836C79.1775 139.84 78.4619 139.537 77.768 138.904ZM73.0506 132.172C73.0681 132.264 73.0812 132.361 73.0812 132.458C73.0812 133.24 72.4528 133.873 71.676 133.873C70.8992 133.873 70.2708 133.24 70.2708 132.458C70.2708 132.255 70.3144 132.062 70.3886 131.886C69.6599 131.939 68.9311 132.106 68.1979 132.396C67.8445 132.537 67.4561 132.317 67.3339 131.913C67.2117 131.508 67.3993 131.064 67.7572 130.924C68.822 130.502 69.8955 130.309 70.9734 130.317C72.0425 130.326 73.1073 130.533 74.1678 130.919C74.5256 131.047 74.722 131.486 74.6085 131.891C74.4951 132.299 74.1154 132.523 73.7576 132.396C73.5219 132.313 73.2863 132.238 73.0506 132.172ZM86.8668 132.044C86.8493 132.128 86.8406 132.216 86.8406 132.308C86.8406 133.09 87.469 133.723 88.2458 133.723C89.0225 133.723 89.6509 133.09 89.6509 132.308C89.6509 132.132 89.6204 131.965 89.5637 131.812C90.2881 131.864 91.0168 132.014 91.7543 132.255C92.1165 132.374 92.4918 132.132 92.5922 131.719C92.6969 131.306 92.4875 130.876 92.1253 130.757C91.0605 130.405 89.9913 130.234 88.9265 130.234C87.8661 130.234 86.81 130.414 85.7671 130.761C85.4092 130.88 85.1997 131.311 85.3045 131.724C85.4092 132.137 85.7845 132.374 86.1423 132.251C86.3867 132.176 86.6267 132.106 86.8668 132.044ZM93.513 127.197C93.8403 127.47 93.8883 127.958 93.6177 128.287C93.3472 128.617 92.8628 128.665 92.5355 128.393C91.4663 127.505 89.2756 127.9 87.3992 128.243C86.3867 128.428 85.4485 128.595 84.6979 128.568C84.2746 128.555 83.9429 128.195 83.956 127.769C83.9691 127.342 84.327 127.008 84.7503 127.022C85.3438 127.043 86.1991 126.89 87.1242 126.718C89.3324 126.318 91.8983 125.853 93.513 127.197ZM67.3819 128.542C67.0546 128.814 66.5702 128.766 66.2996 128.437C66.0291 128.107 66.0771 127.619 66.4044 127.347C68.019 126.006 70.585 126.468 72.7888 126.868C73.7183 127.035 74.5736 127.189 75.1627 127.171C75.586 127.158 75.9439 127.492 75.957 127.918C75.9701 128.344 75.6384 128.705 75.2151 128.718C74.4645 128.744 73.5306 128.577 72.5139 128.393C70.6417 128.05 68.4511 127.654 67.3819 128.542ZM60.8448 129.32C60.9713 129.1 61.2462 129.025 61.4644 129.153C61.6826 129.28 61.7568 129.557 61.6303 129.777C61.4775 130.041 61.3902 130.3 61.3859 130.546C61.3815 130.783 61.4513 131.021 61.6128 131.267C61.7524 131.473 61.7001 131.759 61.4906 131.899C61.2855 132.04 61.0019 131.987 60.8622 131.776C60.5829 131.363 60.4651 130.946 60.4782 130.524C60.4913 130.115 60.6222 129.711 60.8448 129.32ZM98.1475 129.772C98.0209 129.553 98.0995 129.276 98.3133 129.148C98.5315 129.021 98.8064 129.1 98.933 129.315C99.1555 129.707 99.2908 130.111 99.2995 130.52C99.3083 130.941 99.1904 131.359 98.9155 131.772C98.7759 131.979 98.4922 132.036 98.2871 131.895C98.082 131.754 98.0253 131.469 98.1649 131.262C98.3308 131.016 98.4006 130.779 98.3918 130.542C98.3875 130.295 98.2958 130.041 98.1475 129.772ZM99.5614 125.325L97.2398 126.784L96.2841 120.223C91.4532 123.255 85.9416 124.609 79.9412 124.758C74.1983 124.714 68.6867 123.449 63.5591 120.197L62.5161 126.547L60.4651 125.387C60.2818 125.589 59.9938 125.686 59.7145 125.611C59.3217 125.51 59.0555 125.637 58.8941 125.905C58.545 126.485 58.4664 127.54 58.6017 128.722C58.7413 129.975 59.121 131.328 59.6709 132.418C60.2993 133.67 61.111 134.545 61.9226 134.312C62.311 134.202 62.7212 134.413 62.8565 134.804C63.0965 135.503 63.2755 136.035 63.4456 136.549C64.4624 139.603 65.2436 141.95 67.0328 144.055C68.678 145.997 70.7683 147.518 72.9677 148.59C75.3853 149.768 77.9164 150.4 80.1245 150.444C82.4592 150.493 85.1037 149.899 87.5999 148.691C89.8779 147.588 92.0162 145.975 93.6657 143.875C95.0971 142.051 95.6819 140.064 96.4237 137.538C96.6157 136.887 96.8165 136.197 97.0783 135.38C97.17 134.98 97.554 134.716 97.9598 134.787C98.9286 134.958 99.9454 133.49 100.639 131.689C101.058 130.612 101.342 129.425 101.438 128.362C101.525 127.369 101.455 126.507 101.176 125.998C101.028 125.725 100.77 125.593 100.386 125.677C100.356 125.681 100.325 125.686 100.295 125.69C99.9847 125.725 99.7054 125.571 99.5614 125.325Z" fill="white"/>
</g>
<g clip-path="url(#clip3_284_1758)">
<path fill-rule="evenodd" clip-rule="evenodd" d="M183.452 121.655L183.809 125.616C184.894 125.749 185.692 126.386 186.244 127.372C186.916 128.59 187.112 130.375 186.937 132.328C186.769 134.175 186.286 136.205 185.573 138.038C184.313 141.265 182.305 143.924 179.94 144.253C179.688 145.065 179.443 145.905 179.205 146.703C177.995 150.783 177.05 153.981 174.573 157.124C171.816 160.616 168.255 163.283 164.483 165.102C160.341 167.097 155.912 168.077 151.986 168C148.278 167.923 144.059 166.887 140.063 164.948C136.425 163.185 132.961 160.679 130.218 157.474C127.188 153.925 125.929 150.174 124.292 145.296C124.103 144.729 123.907 144.148 123.725 143.609C121.647 143.56 119.897 141.797 118.666 139.347C117.7 137.444 117.036 135.092 116.791 132.929C116.532 130.648 116.749 128.506 117.581 127.148C118.162 126.19 118.988 125.588 120.065 125.49L120.415 121.962C119.995 119.436 119.513 116.783 119.149 114.25C119.051 113.55 118.988 112.871 118.953 112.199C117.448 112.493 116.217 111.086 116 107.139V100.763C116.924 93.1418 120.471 90.0834 126.293 90.9582C131.835 85.1633 139.657 81.9299 150.433 82.0139C162.433 81.7759 172.663 84.5754 180.087 92.183C183.991 96.0743 185.657 102.1 184.649 110.674C184.691 112.297 184.593 114.005 184.334 115.804C184.047 117.749 183.732 119.758 183.452 121.655ZM141.267 136.436C141.316 136.618 141.344 136.807 141.344 136.996C141.344 138.178 140.385 139.144 139.196 139.144C138.013 139.144 137.047 138.185 137.047 136.996C137.047 136.639 137.131 136.303 137.285 136.009C136.145 136.086 135.004 136.338 133.857 136.786C133.367 136.975 132.835 136.681 132.667 136.128C132.499 135.575 132.758 134.966 133.248 134.777C134.864 134.147 136.488 133.853 138.118 133.867C139.734 133.881 141.351 134.196 142.96 134.777C143.45 134.952 143.723 135.547 143.569 136.107C143.415 136.667 142.89 136.975 142.4 136.793C142.029 136.66 141.645 136.541 141.267 136.436ZM148.516 144.365C148.082 143.973 148.054 143.301 148.446 142.868C148.838 142.434 149.509 142.406 149.943 142.798C150.566 143.364 151.154 143.637 151.713 143.63C152.28 143.623 152.882 143.336 153.519 142.784C153.959 142.399 154.624 142.448 155.009 142.889C155.394 143.329 155.345 143.994 154.904 144.379C153.883 145.261 152.826 145.73 151.734 145.744C150.622 145.758 149.551 145.31 148.516 144.365ZM179.534 134.252C179.345 133.923 179.457 133.496 179.786 133.307C180.115 133.118 180.542 133.23 180.731 133.559C181.437 134.791 181.556 136.03 180.703 137.283C180.486 137.598 180.059 137.682 179.744 137.465C179.429 137.248 179.345 136.821 179.562 136.506C180.059 135.778 179.975 135.022 179.534 134.252ZM122.612 133.566C122.801 133.237 123.228 133.118 123.557 133.314C123.886 133.503 124.005 133.93 123.809 134.259C123.368 135.029 123.284 135.785 123.781 136.52C123.998 136.835 123.914 137.269 123.599 137.479C123.284 137.689 122.857 137.605 122.64 137.29C121.787 136.03 121.906 134.791 122.612 133.566ZM172.39 130.438C172.838 130.809 172.908 131.474 172.537 131.922C172.166 132.37 171.501 132.439 171.054 132.069C169.381 130.69 166.016 131.299 163.119 131.817C161.579 132.097 160.159 132.349 159.025 132.307C158.445 132.286 157.99 131.796 158.011 131.215C158.032 130.634 158.522 130.179 159.102 130.193C160.019 130.228 161.327 129.99 162.748 129.731C166.079 129.136 169.969 128.436 172.39 130.438ZM132.513 132.3C132.065 132.67 131.401 132.607 131.03 132.153C130.659 131.705 130.722 131.04 131.177 130.669C133.598 128.667 137.488 129.367 140.826 129.969C142.246 130.228 143.562 130.459 144.471 130.431C145.052 130.41 145.542 130.865 145.563 131.453C145.584 132.034 145.129 132.523 144.541 132.544C143.408 132.586 141.987 132.328 140.448 132.055C137.558 131.523 134.186 130.921 132.513 132.3ZM170.382 134.539C170.879 134.7 171.165 135.288 171.026 135.848C170.886 136.415 170.368 136.737 169.871 136.576C168.716 136.198 167.576 135.974 166.449 135.89C166.568 136.156 166.631 136.45 166.631 136.765C166.631 137.947 165.673 138.913 164.483 138.913C163.301 138.913 162.335 137.954 162.335 136.765C162.335 136.583 162.356 136.408 162.398 136.24C162.013 136.331 161.628 136.443 161.251 136.569C160.754 136.73 160.243 136.408 160.096 135.848C159.956 135.288 160.236 134.7 160.733 134.539C162.314 134.014 163.916 133.748 165.526 133.748C167.149 133.748 168.765 134.007 170.382 134.539ZM122.088 127.638L125.166 129.367L126.762 119.744C134.584 124.671 142.988 126.596 151.755 126.659C160.915 126.428 169.325 124.377 176.7 119.779L178.163 129.724L181.654 127.54C181.892 127.932 182.333 128.17 182.816 128.128C182.865 128.121 182.914 128.114 182.963 128.107C183.522 127.988 183.893 128.177 184.103 128.569C184.523 129.332 184.635 130.62 184.495 132.118C184.348 133.72 183.921 135.512 183.285 137.143C182.228 139.844 180.71 142.056 179.261 141.797C178.61 141.685 177.988 142.105 177.848 142.742C177.456 143.973 177.148 145.002 176.861 145.975L170.235 151.42C168.472 153.597 166.274 153.709 163.686 151.336C158.983 146.045 144.317 147.095 139.804 151.336C137.971 153.282 135.942 153.751 133.556 151.42L127.391 146.717C127.146 146.003 126.902 145.268 126.643 144.505C126.384 143.728 126.111 142.924 125.747 141.86C125.537 141.237 124.872 140.901 124.25 141.076C123.046 141.419 121.829 140.103 120.884 138.234C120.03 136.59 119.457 134.546 119.24 132.656C119.037 130.879 119.149 129.297 119.68 128.429C119.911 128.044 120.296 127.869 120.87 128.009C121.325 128.121 121.787 127.967 122.088 127.638ZM148.271 155.682C147.662 155.381 147.41 154.646 147.704 154.037C148.005 153.429 148.74 153.177 149.348 153.471C150.377 153.974 151.287 154.212 152.168 154.205C153.057 154.198 153.966 153.946 155.002 153.457C155.618 153.17 156.353 153.436 156.639 154.051C156.926 154.667 156.66 155.402 156.045 155.689C154.694 156.326 153.449 156.662 152.182 156.669C150.909 156.676 149.649 156.354 148.271 155.682Z" fill="white"/>
</g>
</g>
<defs>
<filter id="filter0_d_284_1758" x="0.200001" y="0.200001" width="364.6" height="249.6" filterUnits="userSpaceOnUse" color-interpolation-filters="sRGB">
<feFlood flood-opacity="0" result="BackgroundImageFix"/>
<feColorMatrix in="SourceAlpha" type="matrix" values="0 0 0 0 0 0 0 0 0 0 0 0 0 0 0 0 0 0 127 0" result="hardAlpha"/>
<feOffset dy="4"/>
<feGaussianBlur stdDeviation="12.4"/>
<feComposite in2="hardAlpha" operator="out"/>
<feColorMatrix type="matrix" values="0 0 0 0 0 0 0 0 0 0 0 0 0 0 0 0 0 0 0.21 0"/>
<feBlend mode="normal" in2="BackgroundImageFix" result="effect1_dropShadow_284_1758"/>
<feBlend mode="normal" in="SourceGraphic" in2="effect1_dropShadow_284_1758" result="shape"/>
</filter>
<clipPath id="clip0_284_1758">
<rect width="365" height="250" fill="white"/>
</clipPath>
<clipPath id="clip1_284_1758">
<rect width="109" height="105" fill="white" transform="translate(200 72)"/>
</clipPath>
<clipPath id="clip2_284_1758">
<rect width="46" height="54" fill="white" transform="translate(57 98)"/>
</clipPath>
<clipPath id="clip3_284_1758">
<rect width="71" height="86" fill="white" transform="translate(116 82)"/>
</clipPath>
</defs>
</svg>
