<svg width="120" height="120" viewBox="0 0 120 120" fill="none" xmlns="http://www.w3.org/2000/svg">
<g clip-path="url(#clip0_296_1752)">
<path fill-rule="evenodd" clip-rule="evenodd" d="M91.2303 13.5736C83.2127 5.20099 72.1482 0 59.9803 0C47.8123 0 36.7479 5.20099 28.7303 13.5736C27.8416 14.5016 25.7908 13.3696 23.4568 13.4512C-1.758 14.318 -4.70722 47.9816 5.46856 58.9955C4.02325 67.6944 11.2107 74.3333 15.742 73.8846C15.7127 71.7838 15.7518 69.6932 15.742 67.623C10.1854 65.9301 9.42364 55.6505 15.7127 53.2132V55.8647C15.7225 55.3956 15.7322 54.9265 15.742 54.4574V73.7928C15.742 86.4995 20.7225 98.0539 28.74 106.426C36.7576 114.799 47.8221 120 59.99 120C72.158 120 83.2225 114.799 91.24 106.426C99.2576 98.0539 104.238 86.4995 104.238 73.7928V52.9481C104.267 53.9067 104.287 54.8857 104.306 55.8647V53.2132C110.596 55.6505 109.804 65.9301 104.238 67.623C104.228 69.6932 104.258 71.7736 104.238 73.8744C108.769 74.3231 115.996 67.6842 114.551 58.9853C123.281 49.5419 122.353 23.4044 105.976 15.6336C98.0955 11.9113 94.2772 16.7553 91.2303 13.5736ZM74.8631 35.7032C73.8182 35.7032 72.9783 34.816 72.9783 33.7248C72.9783 32.6336 73.8279 31.7566 74.8729 31.7566C77.9979 31.7668 80.8592 32.3889 83.4275 33.6432C86.0154 34.918 88.2908 36.825 90.2049 39.4255C90.8397 40.2923 90.6932 41.5263 89.8631 42.1892C89.033 42.852 87.8514 42.6991 87.2068 41.8322C85.6639 39.7417 83.8572 38.212 81.8162 37.2125C79.7654 36.2131 77.4315 35.7134 74.8631 35.7032ZM51.24 97.238C50.449 96.7995 50.1463 95.7695 50.5662 94.9435C50.9861 94.1174 51.9725 93.8013 52.7635 94.2398C55.2635 95.6268 57.7244 96.3304 60.1463 96.3406C62.5584 96.3508 64.99 95.6573 67.4119 94.2602C68.1932 93.8115 69.1795 94.1072 69.619 94.9333C70.0486 95.7491 69.7654 96.7791 68.9744 97.238C66.0643 98.9207 63.1248 99.7366 60.1463 99.7366C57.158 99.7162 54.1893 98.8799 51.24 97.238ZM74.9998 89.1816C73.3787 89.7527 71.699 90.2422 69.9803 90.6399C68.2127 91.1498 66.5721 91.466 65.1268 91.4966C63.4764 91.5374 62.0604 91.211 60.9275 90.4258C60.5857 90.181 60.2732 89.9261 59.9998 89.6507C59.7264 89.9261 59.4236 90.181 59.0721 90.4258C57.9393 91.211 56.5232 91.5374 54.8729 91.4966C53.4275 91.466 51.7967 91.1498 50.0193 90.6399C48.3006 90.2524 46.6209 89.7629 44.9998 89.1816C43.3885 88.6105 41.8064 87.9477 40.2635 87.2032C39.5213 86.8463 39.2186 85.9692 39.5994 85.2554C39.824 84.8271 40.2342 84.5517 40.6932 84.4803C41.5135 84.3477 42.1775 84.2458 42.7928 84.1642L42.8416 84.154C44.824 83.8684 46.3572 83.6441 48.2127 82.869C48.74 82.6447 49.2479 82.3999 49.7654 82.1552C52.7342 80.7173 55.9861 79.1468 59.2283 81.839C59.5115 82.0736 59.7654 82.3183 59.99 82.5733C60.2244 82.3183 60.4783 82.0736 60.7518 81.839C63.9939 79.1468 67.2459 80.7173 70.2244 82.1552C70.742 82.4101 71.2498 82.6549 71.7772 82.869C73.6424 83.6441 75.1658 83.8684 77.1482 84.154L77.1971 84.1642C77.8123 84.256 78.4666 84.3477 79.2967 84.4803C79.7557 84.5517 80.1658 84.8271 80.3904 85.2554C80.7615 85.9692 80.4686 86.8463 79.7264 87.2032C78.1932 87.9477 76.6111 88.6105 74.9998 89.1816ZM56.0838 73.2013C55.4295 72.6302 55.3416 71.6104 55.8885 70.9272C56.4354 70.2439 57.4119 70.1521 58.0662 70.7232C58.8377 71.3963 59.5799 71.7532 60.283 71.7634C60.9959 71.7736 61.7674 71.4371 62.6072 70.713C63.2615 70.1521 64.2381 70.2439 64.7752 70.9374C65.3123 71.6206 65.2244 72.6404 64.5604 73.2013C63.1346 74.4251 61.699 74.9962 60.2439 74.9758C58.7889 74.9656 57.4022 74.3537 56.0838 73.2013ZM34.658 47.4309C34.0428 47.6859 33.3592 47.2882 33.1541 46.5539C32.9393 45.8197 33.2713 45.014 33.8963 44.7693C36.2889 43.7903 38.6912 43.3415 41.1033 43.3619C43.4959 43.3823 45.8885 43.8718 48.2713 44.7693C48.8963 45.0038 49.2381 45.7891 49.0428 46.5335C48.8475 47.2678 48.1834 47.6859 47.5584 47.4513C46.7674 47.1556 45.9764 46.9007 45.1854 46.7069C45.2635 47.0026 45.3025 47.3188 45.3025 47.6451C45.3025 49.5623 43.8182 51.1124 41.9822 51.1124C40.1463 51.1124 38.6619 49.5623 38.6619 47.6451C38.6619 47.176 38.7498 46.7273 38.9158 46.3194C37.49 46.4825 36.074 46.8497 34.658 47.4309ZM73.2713 46.3908C73.1346 46.7783 73.0272 46.4519 73.0272 47.6247C73.0272 48.7975 74.5115 51.092 76.3475 51.092C78.1834 51.092 79.6678 49.5419 79.6678 47.6247C79.6678 47.074 79.5408 46.5539 79.326 46.095C80.7811 46.2582 82.2459 46.5947 83.7205 47.0944C84.3553 47.3086 85.0096 46.8701 85.1854 46.1256C85.3611 45.3812 84.9998 44.5959 84.365 44.3817C81.9627 43.5659 79.5701 43.158 77.1775 43.158C74.7947 43.158 72.4217 43.5761 70.0779 44.3817C69.4529 44.5959 69.0916 45.3812 69.2674 46.1256C69.4432 46.8701 70.1072 47.2984 70.7322 47.0842C71.5818 46.7987 72.4412 46.5743 73.2713 46.3908ZM45.0486 32.1543C46.0936 32.1033 46.9725 32.9498 47.0213 34.041C47.0701 35.1322 46.2596 36.05 45.2147 36.101C42.3143 36.2437 39.8436 36.8556 37.7732 37.8958C35.7615 38.9156 34.1111 40.3637 32.8025 42.1994C32.1775 43.0764 30.9959 43.26 30.1561 42.6073C29.3162 41.9546 29.1404 40.7207 29.7654 39.8436C31.4354 37.4879 33.5447 35.642 36.1229 34.3265C38.6522 33.062 41.6209 32.3175 45.0486 32.1543ZM59.9803 6.04742C49.4139 6.04742 39.7947 10.5651 32.8318 17.8465C25.8592 25.1279 21.533 35.1627 21.533 46.197V73.7928C21.533 84.8271 25.8592 94.8721 32.8318 102.143C39.8045 109.425 49.4139 113.942 59.9803 113.942C70.5467 113.942 80.1658 109.425 87.1287 102.143C94.1014 94.8619 98.4275 84.8271 98.4275 73.7928V46.197C98.4275 35.1627 94.1014 25.1177 87.1287 17.8465C80.1658 10.5651 70.5467 6.04742 59.9803 6.04742Z" fill="#F97474"/>
</g>
<defs>
<clipPath id="clip0_296_1752">
<rect width="120" height="120" fill="white"/>
</clipPath>
</defs>
</svg>
