<svg width="365" height="250" viewBox="0 0 365 250" fill="none" xmlns="http://www.w3.org/2000/svg">
<g clip-path="url(#clip0_287_1804)">
<g filter="url(#filter0_d_287_1804)">
<path d="M299 21H66C43.3563 21 25 39.3563 25 62V180C25 202.644 43.3563 221 66 221H299C321.644 221 340 202.644 340 180V62C340 39.3563 321.644 21 299 21Z" fill="#F97474"/>
</g>
<path d="M174.799 44.3898V99.3537C174.799 105.461 168.952 119 145.563 124.302" stroke="white" stroke-width="7" stroke-linecap="round"/>
<path d="M168.952 112.218C169.861 103.382 165.989 85.4763 143.224 84.5407C114.767 83.3713 101.904 171.859 103.073 179.266C104.242 186.672 152.579 183.554 168.952 161.724V130.929" stroke="white" stroke-width="7" stroke-linecap="round"/>
<path d="M196.166 111.839C195.256 103.003 199.128 85.0979 221.893 84.1624C250.35 82.9929 263.214 171.481 262.044 178.887C260.875 186.294 212.538 183.175 196.166 161.346V130.55" stroke="white" stroke-width="7" stroke-linecap="round"/>
<path d="M190.391 44V97.7944C191.821 106.37 199.357 123.522 218.068 123.522" stroke="white" stroke-width="7" stroke-linecap="round"/>
<path d="M147.512 138.725C154.528 137.296 171.134 131.786 181.426 121.183C189.352 127.03 207.855 138.725 218.458 138.725" stroke="white" stroke-width="7" stroke-linecap="round"/>
<circle cx="183" cy="157" r="44" fill="#E65252"/>
<path d="M171.815 164.063C171.879 166.839 172.498 170.293 173.487 173.087C173.556 173.034 173.637 172.994 173.724 172.965C174.407 172.739 175.055 172.641 175.72 172.647C176.368 172.653 177.01 172.757 177.704 172.93C178.167 173.046 178.45 173.515 178.334 173.977C178.219 174.44 177.75 174.724 177.287 174.608C176.715 174.463 176.2 174.377 175.714 174.371C175.245 174.365 174.777 174.44 174.274 174.608C174.222 174.625 174.17 174.637 174.117 174.643C174.835 176.239 175.662 177.39 176.524 177.674C176.981 177.824 177.23 178.31 177.079 178.767C176.929 179.224 176.443 179.473 175.986 179.322C174.314 178.779 172.92 176.598 171.919 173.827C171.005 171.299 170.381 168.233 170.167 165.532L168.778 166.77C168.194 167.29 167.783 167.626 167.442 167.909C166.302 168.846 165.915 169.159 165.342 171.253C165.25 171.588 165.134 172.011 164.978 172.479C164.816 172.965 164.625 173.48 164.394 173.948C164.093 174.567 163.711 175.152 163.237 175.591C163.104 175.713 162.959 175.828 162.814 175.921C163.965 177.899 165.365 179.733 166.962 181.359C168.726 183.152 170.722 184.691 172.891 185.888C176.125 187.675 177.565 187.785 180.099 187.976C180.862 188.034 181.713 188.098 182.766 188.219C185.207 188.497 187.555 188.919 189.817 189.382C190.008 186.53 191.171 184.737 192.403 182.834C193.409 181.272 194.474 179.629 194.983 177.211C194.954 177.095 194.948 176.968 194.971 176.847C194.381 174.481 193.6 173.191 192.935 172.08C192.611 171.542 192.31 171.045 192.061 170.507C191.842 170.802 191.616 171.068 191.373 171.305C190.685 171.982 189.898 172.41 189.001 172.554C188.926 172.566 188.851 172.578 188.776 172.583C188.706 172.589 188.631 172.595 188.544 172.601C188.07 172.624 187.665 172.254 187.642 171.779C187.619 171.305 187.989 170.9 188.463 170.877C188.498 170.877 188.544 170.871 188.591 170.865H188.596C188.637 170.859 188.683 170.854 188.724 170.848H188.729C189.25 170.761 189.724 170.495 190.158 170.073C190.615 169.627 191.026 169.003 191.396 168.227C191.124 166.139 191.471 163.01 192.999 157.156C192.599 157.057 192.206 156.913 191.813 156.739C190.471 156.126 189.192 155.062 187.989 153.587C187.937 153.592 187.879 153.592 187.827 153.598C186.433 153.691 184.998 153.575 184.044 153.494C182.436 153.361 181.03 153.043 179.81 152.54C179.844 153.164 179.775 153.858 179.607 154.645C179.457 155.334 179.208 156.016 178.855 156.699C178.514 157.364 178.074 158.023 177.542 158.677C177.328 158.937 177.102 159.198 176.859 159.458C177.212 160.412 177.825 161.419 178.531 162.269C179.248 163.131 180.041 163.814 180.712 164.08C181.163 164.057 181.585 164.109 181.979 164.23C182.442 164.369 182.858 164.595 183.24 164.907C183.61 165.208 183.668 165.752 183.367 166.122C183.066 166.492 182.523 166.55 182.152 166.249C181.95 166.081 181.724 165.96 181.487 165.89C181.377 165.856 181.256 165.833 181.134 165.821C181.1 165.914 181.082 166 181.071 166.087C181.047 166.284 181.082 166.486 181.14 166.695C181.267 167.157 180.995 167.632 180.538 167.759C180.076 167.886 179.601 167.614 179.474 167.157C179.364 166.758 179.306 166.347 179.353 165.908C179.37 165.734 179.405 165.567 179.457 165.387C178.687 164.936 177.901 164.219 177.206 163.386C176.553 162.605 175.969 161.697 175.541 160.794C174.661 161.621 173.713 162.437 172.81 163.212C172.463 163.501 172.122 163.791 171.815 164.063ZM170.757 146.2V132.866C170.757 132.837 170.757 132.802 170.762 132.773C170.803 130.714 170.572 129.042 170.109 127.706C169.64 126.364 168.929 125.375 168.009 124.698C167.922 124.634 167.835 124.571 167.743 124.513C167.656 124.455 167.564 124.397 167.465 124.345C166.783 123.958 166.1 123.773 165.383 123.686C164.625 123.599 163.821 123.628 162.965 123.674C162.49 123.703 162.045 123.755 161.692 123.859C161.472 123.923 161.316 123.987 161.276 124.05C161.241 124.108 161.235 124.195 161.247 124.316C161.27 124.513 161.357 124.756 161.49 125.039C162.213 126.052 162.82 127.197 163.306 128.47C163.792 129.748 164.162 131.171 164.411 132.727C164.417 132.773 164.422 132.82 164.422 132.86V147.31C165.857 146.252 167.141 145.795 168.489 145.795C169.235 145.8 169.976 145.939 170.757 146.2ZM162.693 148.826C162.693 148.803 162.693 148.78 162.693 148.762V132.918C162.461 131.524 162.126 130.246 161.686 129.089C161.247 127.937 160.709 126.914 160.061 126.017C160.026 125.971 159.997 125.924 159.968 125.872C159.725 125.386 159.575 124.935 159.529 124.513C159.471 124.004 159.558 123.547 159.801 123.148C160.09 122.673 160.593 122.373 161.206 122.193C161.698 122.049 162.276 121.974 162.866 121.945C163.803 121.898 164.694 121.864 165.574 121.962C166.499 122.066 167.402 122.321 168.31 122.835C168.431 122.905 168.553 122.98 168.674 123.061C168.796 123.136 168.911 123.223 169.027 123.304C170.224 124.189 171.138 125.45 171.728 127.133C172.261 128.661 172.527 130.535 172.48 132.808C172.48 132.826 172.48 132.843 172.48 132.866V134.162C173.036 132.455 173.77 130.905 174.731 129.499L174.002 126.908C173.331 125.612 173.568 124.461 174.21 123.645C174.517 123.258 174.927 122.951 175.373 122.76C175.824 122.564 176.316 122.477 176.79 122.517C177.744 122.598 178.618 123.159 179 124.339L179.659 125.624C179.786 125.872 179.856 126.023 179.919 126.15C180 126.318 180.006 126.341 180.515 126.237H180.521L180.747 126.191C181.429 126.057 181.672 126.011 181.672 125.433V124.854H181.678C181.678 124.808 181.684 124.768 181.69 124.721C181.898 123.385 182.777 122.569 183.824 122.24C184.27 122.095 184.738 122.043 185.189 122.078C185.652 122.112 186.103 122.234 186.502 122.436C187.353 122.876 187.96 123.668 187.966 124.791C187.966 124.814 187.966 124.837 187.966 124.854V126.15C190.517 127.174 192.328 128.609 193.346 130.483C194.236 132.12 194.503 134.058 194.109 136.314C195.017 136.354 195.845 136.458 196.591 136.626C197.632 136.863 198.517 137.222 199.246 137.702C199.558 137.91 199.853 138.153 200.119 138.419C200.727 139.032 201.172 139.79 201.346 140.588C201.537 141.445 201.421 142.33 200.883 143.145C200.744 143.354 200.576 143.562 200.374 143.758C199.657 144.464 198.586 144.898 197.169 145.066C196.776 145.112 196.354 145.141 195.902 145.147C196.701 145.737 197.441 146.396 198.066 147.131C199.437 148.745 200.264 150.712 200.015 153.153C199.981 153.482 199.917 153.795 199.824 154.09C202.879 157.543 205.528 163.588 206.992 169.841C208.415 175.927 208.727 182.249 207.217 186.634L207.206 186.663C206.459 188.913 205.169 190.712 203.318 191.782C201.612 192.772 199.466 193.125 196.88 192.627C195.48 192.355 194.098 192.06 192.675 191.754C189.47 191.059 186.086 190.331 182.563 189.931C181.944 189.862 181.383 189.81 180.862 189.769C180.29 191.071 179.353 191.991 178.282 192.506C177.484 192.887 176.611 193.038 175.755 192.951C174.893 192.864 174.048 192.534 173.325 191.956C172.781 191.522 172.307 190.944 171.942 190.226C171.433 191.117 170.728 191.794 169.941 192.239C169.218 192.65 168.42 192.858 167.621 192.87C166.817 192.876 166.013 192.679 165.29 192.268C163.971 191.511 162.918 190.047 162.612 187.832C162.6 187.768 162.589 187.704 162.589 187.641V184.644V178.79V178.784C162.039 177.992 161.524 177.171 161.056 176.326C160.506 176.245 160.015 175.933 159.581 175.377C159.199 174.886 158.863 174.191 158.574 173.26C158.563 173.225 158.557 173.191 158.545 173.15C157.799 168.904 157.394 163.293 158.331 158.203C158.996 154.605 160.333 151.267 162.693 148.826ZM198.882 155.663C198.297 156.259 197.482 156.728 196.394 157.063C195.839 157.231 195.283 157.329 194.74 157.347C194.335 158.874 194.017 160.204 193.768 161.373L193.774 161.378C195.561 165.809 197.777 166.7 199.639 167.447C201.421 168.164 202.931 168.771 203.746 171.34C203.891 171.797 203.636 172.282 203.179 172.427C202.723 172.572 202.237 172.317 202.092 171.86C201.525 170.067 200.362 169.598 198.991 169.049C197.187 168.32 195.087 167.481 193.247 164.271C192.686 168.32 193.427 169.552 194.41 171.189C195.139 172.404 195.989 173.815 196.643 176.424C197.684 176.939 198.586 177.593 199.362 178.391C200.2 179.253 200.883 180.283 201.415 181.486L203.249 182.747C203.642 183.019 203.741 183.557 203.469 183.95C203.197 184.343 202.659 184.442 202.266 184.17L201.004 183.302L199.981 185.101C199.743 185.518 199.217 185.662 198.801 185.425C198.384 185.188 198.239 184.662 198.477 184.245L199.749 182.006C199.315 181.069 198.772 180.265 198.118 179.594C197.638 179.097 197.094 178.669 196.487 178.31C195.873 180.63 194.832 182.238 193.837 183.777C192.704 185.529 191.639 187.178 191.518 189.741C192.027 189.85 192.536 189.96 193.039 190.07C194.479 190.383 195.891 190.683 197.204 190.938C199.356 191.354 201.103 191.083 202.451 190.296C203.908 189.451 204.944 187.988 205.557 186.131C205.563 186.114 205.569 186.096 205.574 186.085C206.974 182.024 206.656 176.048 205.302 170.252C203.96 164.496 201.6 158.96 198.882 155.663ZM178.994 189.625C177.01 189.451 175.523 189.191 172.995 187.901C173.209 189.174 173.736 190.07 174.413 190.608C174.869 190.973 175.39 191.175 175.928 191.233C176.466 191.285 177.027 191.187 177.542 190.938C178.103 190.678 178.612 190.232 178.994 189.625ZM171.023 186.802C169.102 185.622 167.321 184.193 165.724 182.568C165.238 182.076 164.775 181.561 164.324 181.035V184.644V187.612C164.55 189.226 165.261 190.261 166.152 190.764C166.609 191.025 167.107 191.152 167.61 191.146C168.119 191.14 168.628 191.002 169.096 190.741C170.045 190.209 170.809 189.15 171.023 187.612V186.802ZM173.782 147.565C174.123 147.634 174.453 147.715 174.771 147.796C175.13 147.894 175.488 148.004 175.841 148.137C176.09 148.23 176.327 148.323 176.553 148.421C177.86 144.788 179.74 141.902 182.245 139.854C181.909 138.593 182.008 137.447 182.517 136.476C183.061 135.429 184.067 134.619 185.49 134.104C185.571 134.075 185.658 134.046 185.75 134.017C186.207 133.873 186.693 134.121 186.838 134.578C186.983 135.035 186.734 135.521 186.277 135.666C186.213 135.689 186.144 135.712 186.074 135.735H186.069C185.074 136.094 184.391 136.62 184.05 137.285C183.83 137.708 183.743 138.199 183.789 138.755C186.173 137.268 189.013 136.441 192.345 136.319C192.744 134.335 192.553 132.675 191.818 131.316C191.003 129.817 189.505 128.649 187.359 127.776L186.971 127.718C186.537 127.654 186.225 127.284 186.225 126.862V124.866C186.225 124.843 186.225 124.814 186.231 124.791C186.219 124.415 186.005 124.137 185.704 123.987C185.513 123.888 185.293 123.83 185.062 123.813C184.819 123.796 184.576 123.825 184.351 123.894C183.905 124.039 183.523 124.374 183.408 124.924V125.444C183.408 127.446 182.789 127.567 181.071 127.897L180.845 127.943C179.006 128.308 178.942 128.163 178.346 126.879C178.277 126.729 178.19 126.549 178.12 126.41L177.421 125.051C177.397 125.005 177.374 124.953 177.363 124.906C177.235 124.472 176.952 124.276 176.651 124.247C176.46 124.23 176.258 124.27 176.067 124.351C175.876 124.438 175.702 124.565 175.569 124.733C175.309 125.063 175.234 125.566 175.569 126.173C175.604 126.237 175.633 126.306 175.65 126.376L176.512 129.43C176.588 129.696 176.53 129.962 176.379 130.17C174.904 132.201 173.984 134.619 173.418 137.436C172.862 140.207 172.642 143.377 172.573 146.952C172.966 147.137 173.365 147.345 173.782 147.565ZM178.086 149.294C178.387 149.52 178.647 149.769 178.872 150.041C179.301 150.365 179.775 150.642 180.301 150.879C181.371 151.354 182.661 151.649 184.171 151.776C185.085 151.851 186.45 151.961 187.711 151.88C188.845 151.805 189.886 151.591 190.355 151.07C190.87 150.492 191.2 149.595 191.396 148.456C191.604 147.229 191.645 145.76 191.581 144.129C191.576 144.065 191.576 143.996 191.587 143.926C191.656 143.452 192.09 143.122 192.565 143.192C194.346 143.446 195.816 143.504 196.967 143.371C197.996 143.249 198.731 142.978 199.165 142.549C199.275 142.44 199.367 142.33 199.443 142.214C199.697 141.826 199.749 141.398 199.662 140.988C199.558 140.519 199.275 140.051 198.887 139.657C198.708 139.478 198.511 139.31 198.291 139.165C197.736 138.801 197.042 138.523 196.209 138.332C195.376 138.147 194.416 138.049 193.322 138.037C193.166 138.095 192.993 138.101 192.819 138.061C192.796 138.055 192.779 138.049 192.756 138.043C189.065 138.113 186.051 139.119 183.656 140.959C181.181 142.85 179.341 145.667 178.086 149.294ZM174.32 149.474C173.99 149.387 173.661 149.306 173.331 149.242C173.25 149.225 173.169 149.196 173.088 149.156C171.219 148.155 169.791 147.53 168.495 147.53C167.245 147.53 166.002 148.126 164.417 149.572C162.016 151.759 160.686 154.992 160.032 158.521C159.141 163.345 159.529 168.713 160.246 172.803C160.472 173.503 160.703 174.001 160.952 174.319C161.102 174.515 161.235 174.614 161.345 174.619C161.611 174.637 161.848 174.515 162.068 174.313C162.363 174.041 162.618 173.636 162.837 173.185C163.04 172.763 163.208 172.335 163.341 171.935C163.48 171.519 163.589 171.114 163.676 170.796C164.399 168.158 164.891 167.753 166.349 166.561C166.731 166.249 167.176 165.885 167.633 165.474L170.08 163.287C170.629 162.796 171.15 162.344 171.694 161.882C173.302 160.499 175.06 158.989 176.206 157.584C176.663 157.023 177.033 156.462 177.322 155.9C177.6 155.362 177.797 154.819 177.918 154.275C178.201 152.962 178.138 152.048 177.727 151.388C177.698 151.342 177.669 151.296 177.635 151.25C177.363 151.03 177.102 150.793 176.865 150.538C176.443 150.255 175.905 150 175.257 149.763C174.95 149.659 174.644 149.56 174.32 149.474ZM193.334 145.529C193.334 146.697 193.259 147.773 193.097 148.727C192.854 150.179 192.391 151.371 191.639 152.21C191.217 152.678 190.633 153.002 189.956 153.222C190.795 154.113 191.651 154.767 192.518 155.166C193.01 155.391 193.513 155.536 194.022 155.588C194.098 155.582 194.173 155.588 194.248 155.605C194.786 155.634 195.33 155.571 195.885 155.403C196.718 155.148 197.308 154.807 197.69 154.391C198.043 154.009 198.234 153.534 198.291 152.991C198.488 151.088 197.829 149.532 196.741 148.253C195.833 147.183 194.618 146.286 193.334 145.529Z" fill="white"/>
</g>
<defs>
<filter id="filter0_d_287_1804" x="0.200001" y="0.200001" width="364.6" height="249.6" filterUnits="userSpaceOnUse" color-interpolation-filters="sRGB">
<feFlood flood-opacity="0" result="BackgroundImageFix"/>
<feColorMatrix in="SourceAlpha" type="matrix" values="0 0 0 0 0 0 0 0 0 0 0 0 0 0 0 0 0 0 127 0" result="hardAlpha"/>
<feOffset dy="4"/>
<feGaussianBlur stdDeviation="12.4"/>
<feComposite in2="hardAlpha" operator="out"/>
<feColorMatrix type="matrix" values="0 0 0 0 0 0 0 0 0 0 0 0 0 0 0 0 0 0 0.21 0"/>
<feBlend mode="normal" in2="BackgroundImageFix" result="effect1_dropShadow_287_1804"/>
<feBlend mode="normal" in="SourceGraphic" in2="effect1_dropShadow_287_1804" result="shape"/>
</filter>
<clipPath id="clip0_287_1804">
<rect width="365" height="250" fill="white"/>
</clipPath>
</defs>
</svg>
