<svg width="167" height="161" viewBox="0 0 167 161" fill="none" xmlns="http://www.w3.org/2000/svg">
<path d="M75.7988 4.38989V59.3537C75.7988 65.4608 69.9516 79.0004 46.5627 84.3019" stroke="#F97474" stroke-width="7" stroke-linecap="round"/>
<path d="M69.9516 72.2175C70.8612 63.3817 66.989 45.4762 44.2239 44.5407C15.7674 43.3712 2.90353 131.859 4.07298 139.266C5.24242 146.672 53.5795 143.554 69.9516 121.724V90.9286" stroke="#F97474" stroke-width="7" stroke-linecap="round"/>
<path d="M97.1656 71.8392C96.256 63.0034 100.128 45.0979 122.893 44.1624C151.35 42.9929 164.214 131.481 163.044 138.887C161.875 146.294 113.538 143.175 97.1656 121.346V90.5503" stroke="#F97474" stroke-width="7" stroke-linecap="round"/>
<path d="M91.3914 4V57.7944C92.8207 66.3703 100.357 83.5221 119.068 83.5221" stroke="#F97474" stroke-width="7" stroke-linecap="round"/>
<path d="M48.5117 98.7249C55.5284 97.2956 72.1345 91.7862 82.4256 81.1832C90.3518 87.0304 108.855 98.7249 119.458 98.7249" stroke="#F97474" stroke-width="7" stroke-linecap="round"/>
<circle cx="84" cy="117" r="44" fill="#E65252"/>
<path d="M72.8152 124.063C72.8788 126.839 73.4978 130.293 74.487 133.087C74.5564 133.035 74.6374 132.994 74.7241 132.965C75.4067 132.74 76.0546 132.641 76.7198 132.647C77.3677 132.653 78.0098 132.757 78.704 132.93C79.1667 133.046 79.4502 133.515 79.3345 133.977C79.2188 134.44 78.7502 134.724 78.2875 134.608C77.7148 134.463 77.2 134.377 76.714 134.371C76.2455 134.365 75.7769 134.44 75.2737 134.608C75.2216 134.625 75.1696 134.637 75.1175 134.643C75.8348 136.239 76.662 137.39 77.5239 137.674C77.9809 137.824 78.2296 138.31 78.0792 138.767C77.9288 139.224 77.4429 139.473 76.9859 139.322C75.3142 138.779 73.9201 136.598 72.9193 133.827C72.0054 131.299 71.3806 128.233 71.1666 125.532L69.7783 126.77C69.194 127.29 68.7833 127.626 68.442 127.909C67.3025 128.846 66.9149 129.159 66.3422 131.253C66.2496 131.588 66.134 132.011 65.9778 132.479C65.8158 132.965 65.6249 133.48 65.3935 133.949C65.0927 134.567 64.7109 135.152 64.2366 135.591C64.1035 135.713 63.9589 135.829 63.8143 135.921C64.9655 137.899 66.3653 139.733 67.9619 141.359C69.7262 143.152 71.7219 144.691 73.8911 145.888C77.1248 147.675 78.5651 147.785 81.0988 147.976C81.8624 148.034 82.7127 148.098 83.7655 148.219C86.2066 148.497 88.5552 148.919 90.817 149.382C91.0079 146.53 92.1706 144.737 93.4027 142.834C94.4092 141.272 95.4736 139.629 95.9827 137.211C95.9537 137.095 95.948 136.968 95.9711 136.847C95.3811 134.481 94.6001 133.191 93.9349 132.08C93.611 131.542 93.3102 131.045 93.0614 130.507C92.8416 130.802 92.616 131.068 92.3731 131.305C91.6847 131.982 90.898 132.41 90.0014 132.554C89.9262 132.566 89.851 132.578 89.7758 132.583C89.7063 132.589 89.6311 132.595 89.5444 132.601C89.07 132.624 88.6651 132.254 88.642 131.779C88.6188 131.305 88.989 130.9 89.4634 130.877C89.4981 130.877 89.5444 130.871 89.5906 130.865H89.5964C89.6369 130.86 89.6832 130.854 89.7237 130.848H89.7295C90.2501 130.761 90.7244 130.495 91.1583 130.073C91.6153 129.627 92.026 129.003 92.3962 128.228C92.1243 126.139 92.4714 123.01 93.9985 117.156C93.5994 117.057 93.206 116.913 92.8127 116.739C91.4706 116.126 90.1922 115.062 88.989 113.587C88.937 113.592 88.8791 113.592 88.8271 113.598C87.433 113.691 85.9984 113.575 85.0439 113.494C83.4358 113.361 82.0301 113.043 80.8096 112.54C80.8443 113.164 80.7749 113.858 80.6071 114.645C80.4567 115.334 80.208 116.016 79.8551 116.699C79.5138 117.364 79.0742 118.023 78.542 118.677C78.328 118.937 78.1024 119.198 77.8594 119.458C78.2123 120.412 78.8254 121.419 79.5312 122.269C80.2485 123.131 81.041 123.814 81.712 124.08C82.1632 124.057 82.5855 124.109 82.9788 124.23C83.4416 124.369 83.8581 124.595 84.2399 124.907C84.6101 125.208 84.6679 125.752 84.3671 126.122C84.0663 126.492 83.5226 126.55 83.1523 126.249C82.9499 126.081 82.7243 125.96 82.4871 125.891C82.3772 125.856 82.2557 125.833 82.1343 125.821C82.0995 125.914 82.0822 126 82.0706 126.087C82.0475 126.284 82.0822 126.486 82.14 126.695C82.2673 127.157 81.9954 127.632 81.5384 127.759C81.0757 127.886 80.6013 127.614 80.4741 127.157C80.3642 126.758 80.3063 126.348 80.3526 125.908C80.3699 125.734 80.4046 125.567 80.4567 125.387C79.6874 124.936 78.9006 124.219 78.2065 123.386C77.5528 122.605 76.9686 121.697 76.5405 120.794C75.6612 121.621 74.7126 122.437 73.8102 123.212C73.4631 123.501 73.1218 123.791 72.8152 124.063ZM71.7566 106.2V92.8661C71.7566 92.8371 71.7566 92.8024 71.7624 92.7735C71.8029 90.7142 71.5715 89.0424 71.1087 87.7062C70.6402 86.3641 69.9287 85.375 69.0089 84.6982C68.9221 84.6345 68.8354 84.5709 68.7428 84.513C68.6561 84.4552 68.5635 84.3974 68.4652 84.3453C67.7826 83.9577 67.1 83.7726 66.3827 83.6858C65.6249 83.5991 64.8208 83.628 63.9647 83.6743C63.4904 83.7032 63.045 83.7553 62.6921 83.8594C62.4723 83.923 62.3161 83.9866 62.2756 84.0503C62.2409 84.1081 62.2351 84.1949 62.2467 84.3164C62.2698 84.513 62.3566 84.756 62.4896 85.0395C63.2127 86.0518 63.8201 87.1971 64.306 88.4697C64.7919 89.7481 65.1621 91.1712 65.4109 92.7272C65.4167 92.7735 65.4224 92.8198 65.4224 92.8603V107.31C66.857 106.252 68.1412 105.795 69.489 105.795C70.2353 105.801 70.9757 105.939 71.7566 106.2ZM63.6928 108.826C63.6928 108.803 63.6928 108.78 63.6928 108.762V92.9181C63.4615 91.524 63.1259 90.2456 62.6863 89.0887C62.2467 87.9376 61.7087 86.9137 61.0608 86.0171C61.0261 85.9708 60.9972 85.9245 60.9683 85.8724C60.7253 85.3865 60.5749 84.9353 60.5286 84.513C60.4708 84.004 60.5576 83.547 60.8005 83.1479C61.0898 82.6735 61.593 82.3727 62.2062 82.1934C62.6979 82.0488 63.2763 81.9736 63.8664 81.9447C64.8035 81.8984 65.6943 81.8637 66.5736 81.962C67.4991 82.0661 68.4015 82.3207 69.3097 82.8355C69.4312 82.9049 69.5527 82.9801 69.6741 83.0611C69.7956 83.1363 69.9113 83.2231 70.027 83.3041C71.2244 84.1891 72.1384 85.4502 72.7284 87.1335C73.2606 88.6606 73.5267 90.5349 73.4804 92.8082C73.4804 92.8256 73.4804 92.8429 73.4804 92.8661V94.1618C74.0358 92.4554 74.7704 90.9051 75.7307 89.4994L75.0018 86.9079C74.3308 85.6121 74.5679 84.461 75.21 83.6454C75.5166 83.2578 75.9273 82.9512 76.3728 82.7603C76.824 82.5636 77.3157 82.4769 77.79 82.5174C78.7445 82.5983 79.6179 83.1594 79.9997 84.3395L80.6592 85.6237C80.7864 85.8724 80.8558 86.0228 80.9195 86.1501C81.0005 86.3179 81.0062 86.341 81.5153 86.2369H81.5211L81.7467 86.1906C82.4293 86.0575 82.6722 86.0113 82.6722 85.4328V84.8543H82.678C82.678 84.8081 82.6838 84.7676 82.6896 84.7213C82.8978 83.385 83.7771 82.5694 84.8241 82.2397C85.2695 82.0951 85.7381 82.043 86.1893 82.0777C86.652 82.1124 87.1033 82.2339 87.5024 82.4364C88.3527 82.876 88.9601 83.6685 88.9659 84.7907C88.9659 84.8139 88.9659 84.837 88.9659 84.8543V86.1501C91.5169 87.174 93.3275 88.6086 94.3456 90.4828C95.2364 92.1198 95.5025 94.0577 95.1092 96.3137C96.0174 96.3542 96.8446 96.4583 97.5908 96.6261C98.632 96.8632 99.5171 97.2219 100.246 97.702C100.558 97.9103 100.853 98.1532 101.119 98.4193C101.727 99.0325 102.172 99.7903 102.346 100.589C102.537 101.445 102.421 102.33 101.883 103.145C101.744 103.354 101.576 103.562 101.374 103.759C100.657 104.464 99.5865 104.898 98.1693 105.066C97.7759 105.112 97.3536 105.141 96.9024 105.147C97.7007 105.737 98.4411 106.396 99.0659 107.131C100.437 108.745 101.264 110.712 101.015 113.153C100.981 113.482 100.917 113.795 100.824 114.09C103.879 117.543 106.528 123.588 107.992 129.841C109.415 135.927 109.727 142.249 108.217 146.634L108.206 146.663C107.459 148.913 106.169 150.712 104.318 151.783C102.612 152.772 100.466 153.125 97.88 152.627C96.4801 152.355 95.0976 152.06 93.6746 151.754C90.4699 151.059 87.0859 150.331 83.5631 149.931C82.9441 149.862 82.383 149.81 81.8624 149.77C81.2897 151.071 80.3526 151.991 79.2824 152.506C78.4841 152.887 77.6107 153.038 76.7545 152.951C75.8926 152.864 75.0481 152.535 74.325 151.956C73.7812 151.522 73.3069 150.944 72.9425 150.226C72.4334 151.117 71.7277 151.794 70.941 152.24C70.2179 152.65 69.4196 152.858 68.6213 152.87C67.8173 152.876 67.0132 152.679 66.2901 152.268C64.9712 151.511 63.9184 150.047 63.6119 147.832C63.6003 147.768 63.5887 147.704 63.5887 147.641V144.644V138.79V138.784C63.0392 137.992 62.5243 137.171 62.0558 136.326C61.5062 136.245 61.0146 135.933 60.5807 135.377C60.1989 134.886 59.8634 134.191 59.5742 133.26C59.5626 133.225 59.5568 133.191 59.5453 133.15C58.799 128.904 58.3941 123.293 59.3312 118.203C59.9965 114.605 61.3327 111.267 63.6928 108.826ZM99.8815 115.663C99.2973 116.259 98.4816 116.728 97.3941 117.063C96.8388 117.231 96.2835 117.329 95.7397 117.347C95.3348 118.874 95.0166 120.204 94.7679 121.373L94.7737 121.379C96.5611 125.81 98.7766 126.7 100.639 127.447C102.421 128.164 103.931 128.771 104.746 131.34C104.891 131.797 104.636 132.283 104.179 132.427C103.723 132.572 103.237 132.317 103.092 131.86C102.525 130.067 101.362 129.598 99.9914 129.049C98.1866 128.32 96.0868 127.481 94.2473 124.271C93.6862 128.32 94.4266 129.552 95.41 131.189C96.1388 132.404 96.9892 133.815 97.6429 136.424C98.6841 136.939 99.5865 137.593 100.362 138.391C101.2 139.253 101.883 140.283 102.415 141.486L104.249 142.747C104.642 143.019 104.741 143.557 104.469 143.95C104.197 144.344 103.659 144.442 103.266 144.17L102.004 143.302L100.981 145.101C100.743 145.518 100.217 145.662 99.8005 145.425C99.384 145.188 99.2394 144.662 99.4766 144.245L100.749 142.007C100.315 141.069 99.7716 140.265 99.1179 139.594C98.6378 139.097 98.0941 138.669 97.4867 138.31C96.8735 140.63 95.8323 142.238 94.8373 143.777C93.7035 145.529 92.6391 147.178 92.5177 149.741C93.0267 149.85 93.5358 149.96 94.039 150.07C95.4794 150.383 96.8908 150.683 98.204 150.938C100.356 151.354 102.103 151.083 103.451 150.296C104.908 149.451 105.944 147.988 106.557 146.131C106.563 146.114 106.569 146.096 106.574 146.085C107.974 142.024 107.656 136.048 106.302 130.252C104.96 124.496 102.6 118.961 99.8815 115.663ZM79.9939 149.625C78.0098 149.451 76.5232 149.191 73.9953 147.901C74.2093 149.174 74.7357 150.07 75.4125 150.608C75.8695 150.973 76.3901 151.175 76.9281 151.233C77.4661 151.285 78.0272 151.187 78.542 150.938C79.1031 150.678 79.6122 150.232 79.9939 149.625ZM72.0227 146.802C70.1022 145.622 68.3205 144.193 66.724 142.568C66.2381 142.076 65.7753 141.561 65.3241 141.035V144.644V147.612C65.5497 149.226 66.2612 150.261 67.152 150.764C67.609 151.025 68.1065 151.152 68.6098 151.146C69.1188 151.14 69.6279 151.002 70.0964 150.741C71.0451 150.209 71.8087 149.151 72.0227 147.612V146.802ZM74.782 107.565C75.1233 107.634 75.453 107.715 75.7712 107.796C76.1298 107.895 76.4884 108.004 76.8413 108.137C77.09 108.23 77.3272 108.323 77.5528 108.421C78.8601 104.788 80.7402 101.902 83.2449 99.8539C82.9094 98.5928 83.0077 97.4475 83.5168 96.4757C84.0605 95.4287 85.0671 94.6188 86.4901 94.104C86.5711 94.075 86.6578 94.0461 86.7504 94.0172C87.2074 93.8726 87.6933 94.1213 87.8379 94.5783C87.9825 95.0353 87.7338 95.5212 87.2768 95.6658C87.2132 95.689 87.1437 95.7121 87.0743 95.7352H87.0685C86.0736 96.0939 85.391 96.6203 85.0497 97.2855C84.8299 97.7078 84.7431 98.1995 84.7894 98.7548C87.1727 97.2682 90.0129 96.441 93.3449 96.3195C93.744 94.3354 93.5531 92.6752 92.8185 91.3158C92.0028 89.8176 90.5046 88.6491 88.3585 87.7756L87.9709 87.7177C87.5371 87.6541 87.2247 87.2839 87.2247 86.8616V84.8659C87.2247 84.8428 87.2247 84.8139 87.2305 84.7907C87.2189 84.4147 87.0049 84.137 86.7041 83.9866C86.5132 83.8883 86.2934 83.8305 86.062 83.8131C85.8191 83.7958 85.5761 83.8247 85.3505 83.8941C84.9051 84.0387 84.5233 84.3742 84.4076 84.9238V85.4444C84.4076 87.4459 83.7887 87.5673 82.0706 87.8971L81.845 87.9433C80.0055 88.3078 79.9419 88.1632 79.3461 86.879C79.2766 86.7286 79.1899 86.5492 79.1205 86.4104L78.4205 85.051C78.3974 85.0047 78.3742 84.9527 78.3627 84.9064C78.2354 84.4726 77.952 84.2759 77.6512 84.247C77.4603 84.2296 77.2578 84.2701 77.0669 84.3511C76.876 84.4378 76.7025 84.5651 76.5694 84.7329C76.3091 85.0626 76.2339 85.5659 76.5694 86.1732C76.6041 86.2369 76.6331 86.3063 76.6504 86.3757L77.5123 89.43C77.5875 89.6961 77.5297 89.9622 77.3793 90.1704C75.9042 92.2008 74.9844 94.6188 74.4175 97.4359C73.8622 100.207 73.6424 103.377 73.573 106.952C73.9663 107.137 74.3655 107.345 74.782 107.565ZM79.0857 109.294C79.3866 109.52 79.6469 109.769 79.8725 110.041C80.3005 110.365 80.7749 110.642 81.3013 110.879C82.3714 111.354 83.6614 111.649 85.1712 111.776C86.0852 111.851 87.4503 111.961 88.7114 111.88C89.8452 111.805 90.8864 111.591 91.355 111.07C91.8698 110.492 92.1995 109.595 92.3962 108.456C92.6044 107.229 92.6449 105.76 92.5813 104.129C92.5755 104.065 92.5755 103.996 92.5871 103.926C92.6565 103.452 93.0903 103.122 93.5647 103.192C95.3464 103.446 96.8157 103.504 97.9668 103.371C98.9965 103.249 99.7311 102.978 100.165 102.55C100.275 102.44 100.367 102.33 100.443 102.214C100.697 101.826 100.749 101.398 100.662 100.988C100.558 100.519 100.275 100.051 99.8873 99.6572C99.708 99.4779 99.5113 99.3101 99.2915 99.1655C98.7361 98.8011 98.042 98.5234 97.209 98.3325C96.376 98.1474 95.4158 98.0491 94.3225 98.0375C94.1663 98.0954 93.9927 98.1012 93.8192 98.0607C93.7961 98.0549 93.7787 98.0491 93.7556 98.0433C90.065 98.1127 87.0512 99.1192 84.6564 100.959C82.1805 102.85 80.341 105.667 79.0857 109.294ZM75.32 109.474C74.9902 109.387 74.6605 109.306 74.3308 109.242C74.2498 109.225 74.1688 109.196 74.0878 109.156C72.2194 108.155 70.7906 107.53 69.4948 107.53C68.2453 107.53 67.0016 108.126 65.4167 109.572C63.016 111.759 61.6856 114.992 61.0319 118.521C60.1411 123.345 60.5286 128.713 61.2459 132.803C61.4715 133.503 61.7029 134.001 61.9517 134.319C62.1021 134.515 62.2351 134.614 62.345 134.62C62.6111 134.637 62.8483 134.515 63.0681 134.313C63.3631 134.041 63.6176 133.636 63.8375 133.185C64.0399 132.763 64.2077 132.335 64.3407 131.935C64.4795 131.519 64.5895 131.114 64.6762 130.796C65.3993 128.158 65.891 127.753 67.3487 126.562C67.7305 126.249 68.1759 125.885 68.6329 125.474L71.0798 123.287C71.6294 122.796 72.15 122.345 72.6937 121.882C74.3019 120.499 76.0604 118.989 77.2057 117.584C77.6627 117.023 78.0329 116.462 78.3222 115.9C78.5998 115.362 78.7965 114.819 78.918 114.275C79.2014 112.962 79.1378 112.048 78.7271 111.388C78.6982 111.342 78.6693 111.296 78.6345 111.25C78.3627 111.03 78.1024 110.793 77.8652 110.538C77.4429 110.255 76.9049 110 76.2571 109.763C75.9505 109.659 75.6439 109.561 75.32 109.474ZM94.334 105.529C94.334 106.697 94.2588 107.773 94.0969 108.728C93.8539 110.179 93.3911 111.371 92.6391 112.21C92.2169 112.678 91.6326 113.002 90.9558 113.222C91.7946 114.113 92.6507 114.767 93.5184 115.166C94.0101 115.391 94.5134 115.536 95.0224 115.588C95.0976 115.582 95.1728 115.588 95.248 115.605C95.786 115.634 96.3297 115.571 96.8851 115.403C97.7181 115.148 98.3081 114.807 98.6899 114.391C99.0427 114.009 99.2336 113.535 99.2915 112.991C99.4881 111.088 98.8287 109.532 97.7412 108.253C96.833 107.183 95.6182 106.286 94.334 105.529Z" fill="white"/>
</svg>
