<svg width="365" height="250" viewBox="0 0 365 250" fill="none" xmlns="http://www.w3.org/2000/svg">
<g clip-path="url(#clip0_287_1818)">
<g filter="url(#filter0_d_287_1818)">
<path d="M299 21H66C43.3563 21 25 39.3563 25 62V180C25 202.644 43.3563 221 66 221H299C321.644 221 340 202.644 340 180V62C340 39.3563 321.644 21 299 21Z" fill="#F97474"/>
</g>
<path d="M73 148C73.8333 147 75.8 145.2 77 146C78.2 146.8 83.1667 151.667 85.5 154L94 153.5L98 164.5L105 49L110 189.5L113.5 154C118.667 152.167 129.3 148.1 130.5 146.5C132 144.5 136.5 134 139 131.5C141.5 129 144.5 132.5 147 137.5C149.5 142.5 154 150 154 150C154 150 160.5 146.5 162.5 146.5C164.5 146.5 172 154 172 154H210C212.167 151.167 217.1 145.7 219.5 146.5C221.9 147.3 226.833 151.833 229 154H237L242 164L248.5 41L253.5 189.5L257.5 154C261.667 153.167 270.3 151.2 271.5 150C273 148.5 280 129.5 284.5 129C288.1 128.6 291.667 136.167 293 140" stroke="white" stroke-width="4" stroke-linecap="round" stroke-linejoin="round"/>
<path d="M92.5625 53V44.2727H96.3295C96.9773 44.2727 97.544 44.3906 98.0298 44.6264C98.5156 44.8622 98.8935 45.2017 99.1634 45.6449C99.4332 46.0881 99.5682 46.6193 99.5682 47.2386C99.5682 47.8636 99.429 48.3906 99.1506 48.8196C98.875 49.2486 98.4872 49.5724 97.9872 49.7912C97.4901 50.0099 96.9091 50.1193 96.2443 50.1193H93.9943V48.2784H95.767C96.0455 48.2784 96.2827 48.2443 96.4787 48.1761C96.6776 48.1051 96.8295 47.9929 96.9347 47.8395C97.0426 47.6861 97.0966 47.4858 97.0966 47.2386C97.0966 46.9886 97.0426 46.7855 96.9347 46.6293C96.8295 46.4702 96.6776 46.3537 96.4787 46.2798C96.2827 46.2031 96.0455 46.1648 95.767 46.1648H94.9318V53H92.5625ZM97.6761 48.9943L99.858 53H97.2841L95.1534 48.9943H97.6761Z" fill="white"/>
<path d="M73.5625 142V133.273H77.3295C77.9773 133.273 78.544 133.401 79.0298 133.656C79.5156 133.912 79.8935 134.271 80.1634 134.734C80.4332 135.197 80.5682 135.739 80.5682 136.358C80.5682 136.983 80.429 137.524 80.1506 137.982C79.875 138.439 79.4872 138.791 78.9872 139.038C78.4901 139.286 77.9091 139.409 77.2443 139.409H74.9943V137.568H76.767C77.0455 137.568 77.2827 137.52 77.4787 137.423C77.6776 137.324 77.8295 137.183 77.9347 137.001C78.0426 136.82 78.0966 136.605 78.0966 136.358C78.0966 136.108 78.0426 135.895 77.9347 135.719C77.8295 135.54 77.6776 135.403 77.4787 135.31C77.2827 135.213 77.0455 135.165 76.767 135.165H75.9318V142H73.5625Z" fill="white"/>
<path d="M95.9375 179.761H97.7784L98.4432 180.597L99.5682 181.875L101.034 183.648H98.9375L97.8977 182.438L97.1989 181.432L95.9375 179.761ZM101.017 178.636C101.017 179.608 100.828 180.428 100.45 181.095C100.072 181.76 99.5625 182.264 98.9205 182.608C98.2784 182.949 97.5625 183.119 96.7727 183.119C95.9773 183.119 95.2585 182.947 94.6165 182.604C93.9773 182.257 93.4688 181.751 93.0909 181.087C92.7159 180.419 92.5284 179.602 92.5284 178.636C92.5284 177.665 92.7159 176.847 93.0909 176.182C93.4688 175.514 93.9773 175.01 94.6165 174.669C95.2585 174.325 95.9773 174.153 96.7727 174.153C97.5625 174.153 98.2784 174.325 98.9205 174.669C99.5625 175.01 100.072 175.514 100.45 176.182C100.828 176.847 101.017 177.665 101.017 178.636ZM98.5795 178.636C98.5795 178.114 98.5099 177.673 98.3707 177.315C98.2344 176.955 98.0313 176.682 97.7614 176.497C97.4943 176.31 97.1648 176.216 96.7727 176.216C96.3807 176.216 96.0497 176.31 95.7798 176.497C95.5128 176.682 95.3097 176.955 95.1705 177.315C95.0341 177.673 94.9659 178.114 94.9659 178.636C94.9659 179.159 95.0341 179.601 95.1705 179.962C95.3097 180.32 95.5128 180.592 95.7798 180.78C96.0497 180.964 96.3807 181.057 96.7727 181.057C97.1648 181.057 97.4943 180.964 97.7614 180.78C98.0313 180.592 98.2344 180.32 98.3707 179.962C98.5099 179.601 98.5795 179.159 98.5795 178.636Z" fill="white"/>
<path d="M119.267 192C119.244 191.716 119.138 191.494 118.947 191.335C118.76 191.176 118.474 191.097 118.091 191.097C117.847 191.097 117.646 191.126 117.49 191.186C117.337 191.243 117.223 191.321 117.149 191.42C117.075 191.52 117.037 191.634 117.034 191.761C117.028 191.866 117.047 191.962 117.089 192.047C117.135 192.129 117.206 192.205 117.303 192.273C117.399 192.338 117.523 192.398 117.673 192.452C117.824 192.506 118.003 192.554 118.21 192.597L118.926 192.75C119.409 192.852 119.822 192.987 120.166 193.155C120.51 193.322 120.791 193.52 121.01 193.747C121.229 193.972 121.389 194.224 121.491 194.506C121.597 194.787 121.651 195.094 121.653 195.426C121.651 196 121.507 196.486 121.223 196.884C120.939 197.281 120.533 197.584 120.004 197.791C119.479 197.999 118.847 198.102 118.108 198.102C117.349 198.102 116.688 197.99 116.122 197.766C115.56 197.541 115.122 197.196 114.81 196.73C114.5 196.261 114.344 195.662 114.341 194.932H116.591C116.605 195.199 116.672 195.423 116.791 195.605C116.911 195.787 117.078 195.925 117.294 196.018C117.513 196.112 117.773 196.159 118.074 196.159C118.327 196.159 118.538 196.128 118.709 196.065C118.879 196.003 119.009 195.916 119.097 195.805C119.185 195.695 119.23 195.568 119.233 195.426C119.23 195.293 119.186 195.176 119.101 195.077C119.018 194.974 118.882 194.884 118.692 194.804C118.501 194.722 118.244 194.645 117.92 194.574L117.051 194.386C116.278 194.219 115.669 193.939 115.223 193.547C114.78 193.152 114.56 192.614 114.562 191.932C114.56 191.378 114.707 190.893 115.006 190.479C115.307 190.061 115.723 189.736 116.254 189.503C116.788 189.27 117.401 189.153 118.091 189.153C118.795 189.153 119.405 189.271 119.919 189.507C120.433 189.743 120.83 190.075 121.108 190.504C121.389 190.93 121.531 191.429 121.534 192H119.267Z" fill="white"/>
<path d="M141.324 112.182V110.273H148.909V112.182H146.284V119H143.949V112.182H141.324Z" fill="white"/>
</g>
<defs>
<filter id="filter0_d_287_1818" x="0.200001" y="0.200001" width="364.6" height="249.6" filterUnits="userSpaceOnUse" color-interpolation-filters="sRGB">
<feFlood flood-opacity="0" result="BackgroundImageFix"/>
<feColorMatrix in="SourceAlpha" type="matrix" values="0 0 0 0 0 0 0 0 0 0 0 0 0 0 0 0 0 0 127 0" result="hardAlpha"/>
<feOffset dy="4"/>
<feGaussianBlur stdDeviation="12.4"/>
<feComposite in2="hardAlpha" operator="out"/>
<feColorMatrix type="matrix" values="0 0 0 0 0 0 0 0 0 0 0 0 0 0 0 0 0 0 0.21 0"/>
<feBlend mode="normal" in2="BackgroundImageFix" result="effect1_dropShadow_287_1818"/>
<feBlend mode="normal" in="SourceGraphic" in2="effect1_dropShadow_287_1818" result="shape"/>
</filter>
<clipPath id="clip0_287_1818">
<rect width="365" height="250" fill="white"/>
</clipPath>
</defs>
</svg>
