<svg width="224" height="162" viewBox="0 0 224 162" fill="none" xmlns="http://www.w3.org/2000/svg">
<path d="M2 109C2.83333 108 4.8 106.2 6 107C7.2 107.8 12.1667 112.667 14.5 115L23 114.5L27 125.5L34 10L39 150.5L42.5 115C47.6667 113.167 58.3 109.1 59.5 107.5C61 105.5 65.5 95 68 92.5C70.5 90 73.5 93.5 76 98.5C78.5 103.5 83 111 83 111C83 111 89.5 107.5 91.5 107.5C93.5 107.5 101 115 101 115H139C141.167 112.167 146.1 106.7 148.5 107.5C150.9 108.3 155.833 112.833 158 115H166L171 125L177.5 2L182.5 150.5L186.5 115C190.667 114.167 199.3 112.2 200.5 111C202 109.5 209 90.5 213.5 90C217.1 89.6 220.667 97.1667 222 101" stroke="#F97474" stroke-width="4" stroke-linecap="round" stroke-linejoin="round"/>
<path d="M21.5625 14V5.27273H25.3295C25.9773 5.27273 26.544 5.39062 27.0298 5.62642C27.5156 5.86222 27.8935 6.2017 28.1634 6.64489C28.4332 7.08807 28.5682 7.61932 28.5682 8.23864C28.5682 8.86364 28.429 9.39062 28.1506 9.8196C27.875 10.2486 27.4872 10.5724 26.9872 10.7912C26.4901 11.0099 25.9091 11.1193 25.2443 11.1193H22.9943V9.27841H24.767C25.0455 9.27841 25.2827 9.24432 25.4787 9.17614C25.6776 9.10511 25.8295 8.9929 25.9347 8.83949C26.0426 8.68608 26.0966 8.4858 26.0966 8.23864C26.0966 7.98864 26.0426 7.78551 25.9347 7.62926C25.8295 7.47017 25.6776 7.35369 25.4787 7.27983C25.2827 7.20312 25.0455 7.16477 24.767 7.16477H23.9318V14H21.5625ZM26.6761 9.99432L28.858 14H26.2841L24.1534 9.99432H26.6761Z" fill="#F97474"/>
<path d="M2.5625 103V94.2727H6.32955C6.97727 94.2727 7.54403 94.4006 8.02983 94.6562C8.51563 94.9119 8.89347 95.2713 9.16335 95.7344C9.43324 96.1974 9.56818 96.7386 9.56818 97.358C9.56818 97.983 9.42898 98.5241 9.15057 98.9815C8.875 99.4389 8.48722 99.7912 7.98722 100.038C7.49006 100.286 6.90909 100.409 6.24432 100.409H3.99432V98.5682H5.76705C6.04545 98.5682 6.28267 98.5199 6.47869 98.4233C6.67756 98.3239 6.82955 98.1832 6.93466 98.0014C7.04261 97.8196 7.09659 97.6051 7.09659 97.358C7.09659 97.108 7.04261 96.8949 6.93466 96.7188C6.82955 96.5398 6.67756 96.4034 6.47869 96.3097C6.28267 96.2131 6.04545 96.1648 5.76705 96.1648H4.93182V103H2.5625Z" fill="#F97474"/>
<path d="M24.9375 140.761H26.7784L27.4432 141.597L28.5682 142.875L30.0341 144.648H27.9375L26.8977 143.438L26.1989 142.432L24.9375 140.761ZM30.017 139.636C30.017 140.608 29.8281 141.428 29.4503 142.095C29.0724 142.76 28.5625 143.264 27.9205 143.608C27.2784 143.949 26.5625 144.119 25.7727 144.119C24.9773 144.119 24.2585 143.947 23.6165 143.604C22.9773 143.257 22.4688 142.751 22.0909 142.087C21.7159 141.419 21.5284 140.602 21.5284 139.636C21.5284 138.665 21.7159 137.847 22.0909 137.182C22.4688 136.514 22.9773 136.01 23.6165 135.669C24.2585 135.325 24.9773 135.153 25.7727 135.153C26.5625 135.153 27.2784 135.325 27.9205 135.669C28.5625 136.01 29.0724 136.514 29.4503 137.182C29.8281 137.847 30.017 138.665 30.017 139.636ZM27.5795 139.636C27.5795 139.114 27.5099 138.673 27.3707 138.315C27.2344 137.955 27.0313 137.682 26.7614 137.497C26.4943 137.31 26.1648 137.216 25.7727 137.216C25.3807 137.216 25.0497 137.31 24.7798 137.497C24.5128 137.682 24.3097 137.955 24.1705 138.315C24.0341 138.673 23.9659 139.114 23.9659 139.636C23.9659 140.159 24.0341 140.601 24.1705 140.962C24.3097 141.32 24.5128 141.592 24.7798 141.78C25.0497 141.964 25.3807 142.057 25.7727 142.057C26.1648 142.057 26.4943 141.964 26.7614 141.78C27.0313 141.592 27.2344 141.32 27.3707 140.962C27.5099 140.601 27.5795 140.159 27.5795 139.636Z" fill="#F97474"/>
<path d="M48.267 153C48.2443 152.716 48.1378 152.494 47.9474 152.335C47.7599 152.176 47.4744 152.097 47.0909 152.097C46.8466 152.097 46.6463 152.126 46.4901 152.186C46.3366 152.243 46.223 152.321 46.1491 152.42C46.0753 152.52 46.0369 152.634 46.0341 152.761C46.0284 152.866 46.0469 152.962 46.0895 153.047C46.1349 153.129 46.206 153.205 46.3026 153.273C46.3991 153.338 46.5227 153.398 46.6733 153.452C46.8239 153.506 47.0028 153.554 47.2102 153.597L47.9261 153.75C48.4091 153.852 48.8224 153.987 49.1662 154.155C49.5099 154.322 49.7912 154.52 50.0099 154.747C50.2287 154.972 50.3892 155.224 50.4915 155.506C50.5966 155.787 50.6506 156.094 50.6534 156.426C50.6506 157 50.5071 157.486 50.223 157.884C49.9389 158.281 49.5327 158.584 49.0043 158.791C48.4787 158.999 47.8466 159.102 47.108 159.102C46.3494 159.102 45.6875 158.99 45.1222 158.766C44.5597 158.541 44.1222 158.196 43.8097 157.73C43.5 157.261 43.3438 156.662 43.3409 155.932H45.5909C45.6051 156.199 45.6719 156.423 45.7912 156.605C45.9105 156.787 46.0781 156.925 46.294 157.018C46.5128 157.112 46.7727 157.159 47.0739 157.159C47.3267 157.159 47.5384 157.128 47.7088 157.065C47.8793 157.003 48.0085 156.916 48.0966 156.805C48.1847 156.695 48.2301 156.568 48.233 156.426C48.2301 156.293 48.1861 156.176 48.1009 156.077C48.0185 155.974 47.8821 155.884 47.6918 155.804C47.5014 155.722 47.2443 155.645 46.9205 155.574L46.0511 155.386C45.2784 155.219 44.669 154.939 44.223 154.547C43.7798 154.152 43.5597 153.614 43.5625 152.932C43.5597 152.378 43.7074 151.893 44.0057 151.479C44.3068 151.061 44.723 150.736 45.2543 150.503C45.7884 150.27 46.4006 150.153 47.0909 150.153C47.7955 150.153 48.4048 150.271 48.919 150.507C49.4332 150.743 49.8295 151.075 50.108 151.504C50.3892 151.93 50.5313 152.429 50.5341 153H48.267Z" fill="#F97474"/>
<path d="M70.3239 73.1818V71.2727H77.9091V73.1818H75.2841V80H72.9489V73.1818H70.3239Z" fill="#F97474"/>
</svg>
