<svg width="118" height="123" viewBox="0 0 118 123" fill="none" xmlns="http://www.w3.org/2000/svg">
<g clip-path="url(#clip0_299_1796)">
<path fill-rule="evenodd" clip-rule="evenodd" d="M117.23 22.21C115.9 37.52 106 46.75 89.45 49.46C90 30.46 102.65 25.08 117.23 22.21ZM32.06 60.45C28 58.31 25.8 57.94 21.68 60.4C21.2517 60.6572 20.7387 60.7338 20.2539 60.6128C19.7692 60.4919 19.3523 60.1833 19.095 59.755C18.8378 59.3266 18.7612 58.8137 18.8822 58.3289C19.0031 57.8441 19.3117 57.4272 19.74 57.17C24.46 54.39 28.98 54.66 33.74 57.11C34.1505 57.3545 34.4525 57.7461 34.5846 58.2052C34.7167 58.6644 34.6691 59.1566 34.4514 59.5819C34.2336 60.0072 33.8621 60.3336 33.4124 60.4948C32.9626 60.6561 32.4684 60.64 32.03 60.45H32.06ZM39.83 112.8C39.83 113.34 39.83 113.8 39.83 114.38C39.7529 116.713 39.4175 119.031 38.83 121.29C38.6749 121.835 38.3171 122.3 37.83 122.59C37.5882 122.733 37.3204 122.825 37.0422 122.863C36.764 122.901 36.4811 122.883 36.21 122.81C35.6659 122.653 35.2014 122.296 34.91 121.81C34.7674 121.568 34.6745 121.3 34.6367 121.022C34.599 120.744 34.6171 120.461 34.69 120.19C35.1926 118.407 35.4879 116.571 35.57 114.72V114.1C34.65 114.36 33.73 114.58 32.83 114.77C27.36 116.02 19.5 117.17 14.27 114.68C13.2899 114.225 12.3966 113.602 11.63 112.84C10.8137 112.022 10.1917 111.031 9.81003 109.94C9.42532 108.785 9.27903 107.563 9.38002 106.35C9.45708 105.312 9.64823 104.286 9.95002 103.29C10.28 102.182 10.698 101.102 11.2 100.06C10.96 98.83 10.72 97.57 10.58 96.32C10.22 93.64 9.97002 90.03 9.90002 87.32C9.85002 85.95 9.84002 84.56 9.82002 83.19V82.81C8.48002 82.73 7.06003 82.69 5.74003 82.57C5.19357 82.546 4.65247 82.4519 4.13003 82.29C3.609 82.1375 3.11357 81.9083 2.66003 81.61C2.24192 81.3189 1.85637 80.9836 1.51003 80.61C0.843056 79.8359 0.379126 78.908 0.160025 77.91C0.0472995 77.4012 -0.00638836 76.8811 2.51826e-05 76.36C0.0278454 75.51 0.175985 74.6683 0.440025 73.86C0.743287 72.993 1.14597 72.1642 1.64003 71.39L6.21003 62C7.00038 60.5417 7.64998 59.0115 8.15002 57.43C8.55002 55.87 8.24002 51.6 8.30002 49.97C8.33824 46.0537 9.13634 42.1821 10.65 38.57L2.58003 35.07C2.32114 34.9589 2.08698 34.7973 1.89124 34.5947C1.69551 34.3921 1.54211 34.1525 1.44003 33.89C1.33111 33.6338 1.27497 33.3583 1.27497 33.08C1.27497 32.8016 1.33111 32.5261 1.44003 32.27C5.35003 23.57 22.21 10.05 30.85 5.71996C40.8363 0.491771 52.2978 -1.20349 63.37 0.909959L64.72 1.19996C65.15 1.28996 65.6 1.41996 66.06 1.52996C66.1465 1.55338 66.2233 1.60386 66.2791 1.67403C66.3349 1.7442 66.3667 1.83038 66.37 1.91996V5.49996C66.3675 5.60525 66.3245 5.70552 66.2501 5.77999C66.1756 5.85446 66.0753 5.89742 65.97 5.89996H65.83L64.21 5.47996C63.66 5.34996 63.1 5.22996 62.56 5.12996C52.5959 3.23073 42.283 4.70501 33.25 9.31996C24.35 13.69 15.33 21.09 6.74003 32.25C9.27003 33.37 12.29 34.49 14.74 35.74C17.4913 36.5451 20.4015 36.6414 23.2 36.02C26.5152 35.3604 29.7878 34.5022 33 33.45C35.43 32.72 37.79 31.99 40.05 31.45C42.181 30.8988 44.3693 30.6001 46.57 30.56C46.706 30.5405 46.844 30.5405 46.98 30.56C47.1195 30.5755 47.2569 30.6057 47.39 30.65C47.9255 30.8281 48.3684 31.2114 48.6215 31.7157C48.8746 32.22 48.9172 32.8042 48.74 33.34C47.7416 36.1197 47.2143 39.0466 47.18 42C47.1576 44.2161 47.6506 46.407 48.62 48.4C49.5846 50.2858 50.9057 51.9668 52.51 53.35C54.292 54.9091 56.2523 56.2518 58.35 57.35C58.593 57.4867 58.8065 57.6702 58.9781 57.8899C59.1498 58.1096 59.2762 58.3611 59.35 58.63C59.435 59.0234 59.4072 59.4329 59.2699 59.8113C59.1326 60.1897 58.8914 60.5217 58.574 60.7692C58.2565 61.0167 57.8757 61.1696 57.4752 61.2104C57.0747 61.2513 56.6709 61.1783 56.31 61C53.8641 59.7089 51.5784 58.1348 49.5 56.31C47.5493 54.5988 45.9468 52.5277 44.78 50.21C43.7159 48.0184 43.0876 45.6411 42.93 43.21C42.7892 40.4459 43.0759 37.6766 43.78 35C42.3411 35.2289 40.9156 35.5361 39.51 35.92C37.78 36.39 35.99 36.92 34.18 37.48C30.8431 38.5804 27.4438 39.482 24 40.18C20.9015 40.8406 17.6985 40.8406 14.6 40.18C13.2535 43.343 12.5498 46.7423 12.53 50.18C12.46 52.3 12.82 56.41 12.33 58.35C11.7786 60.293 10.9963 62.163 10 63.92L5.39003 73.47L5.29003 73.63C4.9829 74.0958 4.7312 74.5958 4.54003 75.12C4.37493 75.5447 4.28361 75.9945 4.27003 76.45C4.26635 76.6445 4.28311 76.8389 4.32003 77.03C4.35363 77.1959 4.40736 77.3571 4.48003 77.51C4.53814 77.6263 4.61218 77.734 4.70003 77.83C4.78055 77.9171 4.87119 77.9943 4.97003 78.06C5.09373 78.1444 5.22828 78.2116 5.37003 78.26C5.53624 78.3068 5.70745 78.3337 5.88003 78.34C7.56003 78.34 9.56002 78.55 11.28 78.65H11.52H11.85C13.43 78.65 15.36 78.91 16.96 79.06C17.5255 79.1112 18.049 79.3801 18.42 79.81C18.6942 80.1322 18.8667 80.5285 18.9157 80.9487C18.9648 81.369 18.8881 81.7943 18.6955 82.1711C18.5029 82.5478 18.2029 82.8589 17.8335 83.0652C17.4641 83.2715 17.0418 83.3636 16.62 83.33L14.08 83.17V83.24C14.08 84.48 14.08 85.71 14.15 86.94C14.22 88.17 14.24 89.22 14.34 90.39C19.08 92.61 21.9 90.14 23.34 90.72C23.6026 90.8221 23.8422 90.9754 24.0448 91.1712C24.2474 91.3669 24.4089 91.6011 24.52 91.86C24.6316 92.1137 24.6892 92.3878 24.6892 92.665C24.6892 92.9421 24.6316 93.2162 24.52 93.47C24.4196 93.7347 24.2669 93.9764 24.071 94.1809C23.8752 94.3853 23.6402 94.5482 23.38 94.66C20.6379 95.8821 17.5372 96.0319 14.69 95.08L14.78 95.84C14.94 97.21 15.23 98.56 15.5 99.91C15.5304 100.176 15.5304 100.444 15.5 100.71C15.4631 100.97 15.371 101.219 15.23 101.44C14.7687 102.349 14.3776 103.292 14.06 104.26C13.8111 105.029 13.65 105.824 13.58 106.63C13.5359 107.261 13.6071 107.895 13.79 108.5C13.9461 109.022 14.2316 109.497 14.62 109.88C15.0829 110.3 15.6138 110.638 16.19 110.88C21.06 113.08 29.9 111.17 34.84 109.88C39.5 108.58 44.84 106.64 48.63 103.61C49.6445 102.741 50.4684 101.672 51.05 100.47C52.71 97.22 53.71 93.02 55.37 89.56C56.1013 87.7915 57.2105 86.2044 58.62 84.91C58.8385 84.7357 59.0912 84.6092 59.3616 84.5386C59.632 84.468 59.9142 84.4548 60.19 84.5C60.4714 84.5331 60.7431 84.6229 60.9888 84.7638C61.2346 84.9047 61.4493 85.0939 61.62 85.32C61.792 85.5427 61.9182 85.7973 61.9912 86.0691C62.0643 86.3409 62.0827 86.6244 62.0455 86.9034C62.0083 87.1823 61.9162 87.4511 61.7745 87.6943C61.6329 87.9374 61.4444 88.1501 61.22 88.32C60.2578 89.3107 59.5091 90.4883 59.02 91.78C57.49 95.21 56.38 99.58 54.68 102.78C52.1 107.62 46.87 110.17 41.96 112.09C41.57 112.25 41.14 112.39 40.72 112.56L39.79 112.88L39.83 112.8ZM106.65 54.05C106.88 62.6 104.82 69.66 99.94 77.65C95.52 84.87 88.8 91.54 79.35 97.07C79.2251 97.1433 79.0947 97.2068 78.96 97.26H78.9C78.9 98.5133 78.94 99.7533 79.02 100.98C79.1 102.29 79.23 103.59 79.38 104.88C79.67 107.338 80.1108 109.776 80.7 112.18C81.2732 114.494 81.9845 116.771 82.83 119C82.9276 119.262 82.9725 119.541 82.9622 119.821C82.9519 120.101 82.8866 120.376 82.77 120.63C82.5401 121.136 82.1225 121.532 81.6056 121.735C81.0887 121.939 80.5129 121.933 80 121.72C79.7423 121.605 79.5103 121.44 79.3179 121.234C79.1255 121.028 78.9766 120.785 78.88 120.52C77.0533 115.641 75.8113 110.562 75.18 105.39C74.8499 102.656 74.6796 99.9042 74.67 97.15C74.653 94.2176 74.7965 91.2866 75.1 88.37C75.127 88.0924 75.209 87.823 75.3412 87.5775C75.4734 87.332 75.6532 87.1153 75.87 86.94C76.3072 86.5821 76.8673 86.4098 77.43 86.46C77.9903 86.523 78.5034 86.8036 78.8588 87.2412C79.2141 87.6789 79.3834 88.2387 79.33 88.8C79.27 89.49 79.21 90.2 79.14 90.93L79 92.26C86.1288 87.9878 92.1298 82.0691 96.5 75C100.78 67.8 102.59 61.65 102.37 54C102.367 53.8929 102.407 53.789 102.479 53.7105C102.552 53.632 102.653 53.5851 102.76 53.58H106.22C106.329 53.58 106.433 53.6232 106.51 53.7C106.587 53.7769 106.63 53.8812 106.63 53.99L106.65 54.05ZM68.91 66.16C68.9606 66.4338 68.9568 66.7149 68.8987 66.9872C68.8407 67.2595 68.7295 67.5177 68.5717 67.7471C68.4138 67.9765 68.2123 68.1725 67.9787 68.324C67.745 68.4755 67.4838 68.5794 67.21 68.63C66.9341 68.6826 66.6505 68.6797 66.3757 68.6213C66.101 68.5629 65.8407 68.4503 65.61 68.29C65.1521 67.9672 64.8368 67.4799 64.73 66.93C64.6335 66.3484 64.59 65.7594 64.6 65.17C64.6249 64.5974 64.7189 64.0299 64.88 63.48C65.0959 62.7717 65.4125 62.0982 65.82 61.48C66.2357 60.8293 66.7483 60.246 67.34 59.75C67.9022 59.2667 68.528 58.863 69.2 58.55C69.8725 58.2281 70.5858 57.9993 71.32 57.87C71.9521 57.7468 72.5971 57.7031 73.24 57.74C73.8795 57.7665 74.5138 57.8672 75.13 58.04C76.5419 58.3761 77.8457 59.0642 78.92 60.04C79.7485 60.8621 80.2737 61.9408 80.41 63.1C80.531 64.1277 80.4391 65.1693 80.14 66.16C79.8248 67.2492 79.4097 68.307 78.9 69.32C78.46 70.25 77.38 72.49 75.99 75.05C74.5995 77.7117 73.0013 80.2596 71.21 82.67C68.76 85.82 66.32 87.96 64.33 87.67C62.34 87.38 60.85 84.55 60.49 77.87C60.4588 77.5794 60.4879 77.2854 60.5757 77.0067C60.6635 76.7279 60.8079 76.4702 61 76.25C61.3782 75.847 61.8981 75.6068 62.45 75.58C63.0021 75.5745 63.5366 75.774 63.95 76.14C64.3703 76.521 64.6221 77.0533 64.65 77.62C64.78 80.2 65.2 81.32 65.73 81.51C66.26 81.7 66.94 81.03 67.73 80.02C69.3932 77.7709 70.881 75.3972 72.18 72.92C73.48 70.5 74.51 68.37 74.94 67.47C75.2931 66.7629 75.5939 66.031 75.84 65.28C76.029 64.7618 76.1106 64.2106 76.08 63.66C76.0206 63.3504 75.8408 63.0771 75.58 62.9C75.1037 62.5507 74.5686 62.2899 74 62.13C73.6726 62.0495 73.3372 62.0059 73 62C72.6655 61.9814 72.3299 62.0015 72 62.06C71.6329 62.1247 71.2763 62.2391 70.94 62.4C70.6062 62.5619 70.291 62.7597 70 62.99C69.7418 63.217 69.5133 63.4757 69.32 63.76C69.1326 64.0329 68.997 64.338 68.92 64.66C68.8493 64.9041 68.809 65.156 68.8 65.41C68.7556 65.6681 68.7556 65.9319 68.8 66.19L68.91 66.16ZM77.15 24.82C78.24 16.08 79.71 9.47996 88.4 3.74996C94.62 8.66996 97.91 11.63 99.4 24.92C94.81 26.02 90.73 30.92 88.3 38.52C86 31.09 82.24 26.6 77.15 24.82ZM102.55 23.82L100.88 16C103.7 13.58 108.61 12.26 113.43 11C113.426 14.0773 113.216 17.1509 112.8 20.2C109.194 20.8059 105.724 22.045 102.55 23.86V23.82ZM74.11 23.82L75.79 16C72.96 13.58 68.05 12.26 63.23 11C63.2339 14.0773 63.4443 17.1509 63.86 20.2C67.4658 20.8059 70.9359 22.045 74.11 23.86V23.82ZM59.3 22.21C60.64 37.52 70.51 46.75 87.09 49.46C86.54 30.46 73.89 25.08 59.3 22.21Z" fill="#F97474"/>
</g>
<defs>
<clipPath id="clip0_299_1796">
<rect width="117.23" height="122.88" fill="white"/>
</clipPath>
</defs>
</svg>
