<svg width="365" height="250" viewBox="0 0 365 250" fill="none" xmlns="http://www.w3.org/2000/svg">
<g clip-path="url(#clip0_284_1796)">
<g filter="url(#filter0_d_284_1796)">
<path d="M299 21H66C43.3563 21 25 39.3563 25 62V180C25 202.644 43.3563 221 66 221H299C321.644 221 340 202.644 340 180V62C340 39.3563 321.644 21 299 21Z" fill="#F97474"/>
</g>
<g clip-path="url(#clip1_284_1796)">
<path fill-rule="evenodd" clip-rule="evenodd" d="M241.23 82.21C239.9 97.52 230 106.75 213.45 109.46C214 90.46 226.65 85.08 241.23 82.21ZM156.06 120.45C152 118.31 149.8 117.94 145.68 120.4C145.252 120.657 144.739 120.734 144.254 120.613C143.769 120.492 143.352 120.183 143.095 119.755C142.838 119.327 142.761 118.814 142.882 118.329C143.003 117.844 143.312 117.427 143.74 117.17C148.46 114.39 152.98 114.66 157.74 117.11C158.151 117.355 158.452 117.746 158.585 118.205C158.717 118.664 158.669 119.157 158.451 119.582C158.234 120.007 157.862 120.334 157.412 120.495C156.963 120.656 156.468 120.64 156.03 120.45H156.06ZM163.83 172.8C163.83 173.34 163.83 173.8 163.83 174.38C163.753 176.713 163.417 179.031 162.83 181.29C162.675 181.835 162.317 182.3 161.83 182.59C161.588 182.733 161.32 182.826 161.042 182.863C160.764 182.901 160.481 182.883 160.21 182.81C159.666 182.653 159.201 182.296 158.91 181.81C158.767 181.568 158.675 181.3 158.637 181.022C158.599 180.744 158.617 180.461 158.69 180.19C159.193 178.407 159.488 176.571 159.57 174.72V174.1C158.65 174.36 157.73 174.58 156.83 174.77C151.36 176.02 143.5 177.17 138.27 174.68C137.29 174.225 136.397 173.602 135.63 172.84C134.814 172.022 134.192 171.031 133.81 169.94C133.425 168.785 133.279 167.563 133.38 166.35C133.457 165.312 133.648 164.286 133.95 163.29C134.28 162.182 134.698 161.102 135.2 160.06C134.96 158.83 134.72 157.57 134.58 156.32C134.22 153.64 133.97 150.03 133.9 147.32C133.85 145.95 133.84 144.56 133.82 143.19V142.81C132.48 142.73 131.06 142.69 129.74 142.57C129.194 142.546 128.652 142.452 128.13 142.29C127.609 142.138 127.114 141.908 126.66 141.61C126.242 141.319 125.856 140.984 125.51 140.61C124.843 139.836 124.379 138.908 124.16 137.91C124.047 137.401 123.994 136.881 124 136.36C124.028 135.51 124.176 134.668 124.44 133.86C124.743 132.993 125.146 132.164 125.64 131.39L130.21 122C131 120.542 131.65 119.012 132.15 117.43C132.55 115.87 132.24 111.6 132.3 109.97C132.338 106.054 133.136 102.182 134.65 98.57L126.58 95.07C126.321 94.9589 126.087 94.7974 125.891 94.5948C125.696 94.3922 125.542 94.1526 125.44 93.89C125.331 93.6339 125.275 93.3584 125.275 93.08C125.275 92.8017 125.331 92.5262 125.44 92.27C129.35 83.57 146.21 70.05 154.85 65.72C164.836 60.4918 176.298 58.7966 187.37 60.91L188.72 61.2C189.15 61.29 189.6 61.42 190.06 61.53C190.147 61.5534 190.223 61.6039 190.279 61.6741C190.335 61.7443 190.367 61.8304 190.37 61.92V65.5C190.367 65.6053 190.325 65.7056 190.25 65.7801C190.176 65.8545 190.075 65.8975 189.97 65.9H189.83L188.21 65.48C187.66 65.35 187.1 65.23 186.56 65.13C176.596 63.2308 166.283 64.7051 157.25 69.32C148.35 73.69 139.33 81.09 130.74 92.25C133.27 93.37 136.29 94.49 138.74 95.74C141.491 96.5452 144.402 96.6415 147.2 96.02C150.515 95.3605 153.788 94.5023 157 93.45C159.43 92.72 161.79 91.99 164.05 91.45C166.181 90.8988 168.369 90.6001 170.57 90.56C170.706 90.5406 170.844 90.5406 170.98 90.56C171.119 90.5756 171.257 90.6057 171.39 90.65C171.925 90.8281 172.368 91.2114 172.621 91.7158C172.875 92.2201 172.917 92.8043 172.74 93.34C171.742 96.1197 171.214 99.0466 171.18 102C171.158 104.216 171.651 106.407 172.62 108.4C173.585 110.286 174.906 111.967 176.51 113.35C178.292 114.909 180.252 116.252 182.35 117.35C182.593 117.487 182.806 117.67 182.978 117.89C183.15 118.11 183.276 118.361 183.35 118.63C183.435 119.023 183.407 119.433 183.27 119.811C183.133 120.19 182.891 120.522 182.574 120.769C182.256 121.017 181.876 121.17 181.475 121.211C181.075 121.251 180.671 121.178 180.31 121C177.864 119.709 175.578 118.135 173.5 116.31C171.549 114.599 169.947 112.528 168.78 110.21C167.716 108.019 167.088 105.641 166.93 103.21C166.789 100.446 167.076 97.6766 167.78 95C166.341 95.229 164.916 95.5361 163.51 95.92C161.78 96.39 159.99 96.92 158.18 97.48C154.843 98.5805 151.444 99.4821 148 100.18C144.902 100.841 141.699 100.841 138.6 100.18C137.253 103.343 136.55 106.742 136.53 110.18C136.46 112.3 136.82 116.41 136.33 118.35C135.779 120.293 134.996 122.163 134 123.92L129.39 133.47L129.29 133.63C128.983 134.096 128.731 134.596 128.54 135.12C128.375 135.545 128.284 135.995 128.27 136.45C128.266 136.645 128.283 136.839 128.32 137.03C128.354 137.196 128.407 137.357 128.48 137.51C128.538 137.626 128.612 137.734 128.7 137.83C128.781 137.917 128.871 137.994 128.97 138.06C129.094 138.144 129.228 138.212 129.37 138.26C129.536 138.307 129.707 138.334 129.88 138.34C131.56 138.34 133.56 138.55 135.28 138.65H135.52H135.85C137.43 138.65 139.36 138.91 140.96 139.06C141.526 139.111 142.049 139.38 142.42 139.81C142.694 140.132 142.867 140.529 142.916 140.949C142.965 141.369 142.888 141.794 142.695 142.171C142.503 142.548 142.203 142.859 141.833 143.065C141.464 143.272 141.042 143.364 140.62 143.33L138.08 143.17V143.24C138.08 144.48 138.08 145.71 138.15 146.94C138.22 148.17 138.24 149.22 138.34 150.39C143.08 152.61 145.9 150.14 147.34 150.72C147.603 150.822 147.842 150.976 148.045 151.171C148.247 151.367 148.409 151.601 148.52 151.86C148.632 152.114 148.689 152.388 148.689 152.665C148.689 152.942 148.632 153.216 148.52 153.47C148.42 153.735 148.267 153.976 148.071 154.181C147.875 154.385 147.64 154.548 147.38 154.66C144.638 155.882 141.537 156.032 138.69 155.08L138.78 155.84C138.94 157.21 139.23 158.56 139.5 159.91C139.53 160.176 139.53 160.444 139.5 160.71C139.463 160.97 139.371 161.219 139.23 161.44C138.769 162.349 138.378 163.292 138.06 164.26C137.811 165.029 137.65 165.824 137.58 166.63C137.536 167.261 137.607 167.895 137.79 168.5C137.946 169.023 138.232 169.497 138.62 169.88C139.083 170.3 139.614 170.638 140.19 170.88C145.06 173.08 153.9 171.17 158.84 169.88C163.5 168.58 168.84 166.64 172.63 163.61C173.644 162.741 174.468 161.672 175.05 160.47C176.71 157.22 177.71 153.02 179.37 149.56C180.101 147.792 181.211 146.204 182.62 144.91C182.839 144.736 183.091 144.609 183.362 144.539C183.632 144.468 183.914 144.455 184.19 144.5C184.471 144.533 184.743 144.623 184.989 144.764C185.235 144.905 185.449 145.094 185.62 145.32C185.792 145.543 185.918 145.797 185.991 146.069C186.064 146.341 186.083 146.624 186.046 146.903C186.008 147.182 185.916 147.451 185.775 147.694C185.633 147.937 185.444 148.15 185.22 148.32C184.258 149.311 183.509 150.488 183.02 151.78C181.49 155.21 180.38 159.58 178.68 162.78C176.1 167.62 170.87 170.17 165.96 172.09C165.57 172.25 165.14 172.39 164.72 172.56L163.79 172.88L163.83 172.8ZM230.65 114.05C230.88 122.6 228.82 129.66 223.94 137.65C219.52 144.87 212.8 151.54 203.35 157.07C203.225 157.143 203.095 157.207 202.96 157.26H202.9C202.9 158.513 202.94 159.753 203.02 160.98C203.1 162.29 203.23 163.59 203.38 164.88C203.67 167.338 204.111 169.776 204.7 172.18C205.273 174.494 205.984 176.771 206.83 179C206.928 179.262 206.973 179.541 206.962 179.821C206.952 180.101 206.887 180.376 206.77 180.63C206.54 181.136 206.123 181.532 205.606 181.736C205.089 181.939 204.513 181.933 204 181.72C203.742 181.605 203.51 181.44 203.318 181.234C203.125 181.028 202.977 180.785 202.88 180.52C201.053 175.641 199.811 170.562 199.18 165.39C198.85 162.656 198.68 159.904 198.67 157.15C198.653 154.218 198.797 151.287 199.1 148.37C199.127 148.092 199.209 147.823 199.341 147.578C199.473 147.332 199.653 147.115 199.87 146.94C200.307 146.582 200.867 146.41 201.43 146.46C201.99 146.523 202.503 146.804 202.859 147.241C203.214 147.679 203.383 148.239 203.33 148.8C203.27 149.49 203.21 150.2 203.14 150.93L203 152.26C210.129 147.988 216.13 142.069 220.5 135C224.78 127.8 226.59 121.65 226.37 114C226.367 113.893 226.407 113.789 226.479 113.711C226.552 113.632 226.653 113.585 226.76 113.58H230.22C230.329 113.58 230.433 113.623 230.51 113.7C230.587 113.777 230.63 113.881 230.63 113.99L230.65 114.05ZM192.91 126.16C192.961 126.434 192.957 126.715 192.899 126.987C192.841 127.26 192.73 127.518 192.572 127.747C192.414 127.977 192.212 128.173 191.979 128.324C191.745 128.476 191.484 128.579 191.21 128.63C190.934 128.683 190.65 128.68 190.376 128.621C190.101 128.563 189.841 128.45 189.61 128.29C189.152 127.967 188.837 127.48 188.73 126.93C188.634 126.348 188.59 125.759 188.6 125.17C188.625 124.597 188.719 124.03 188.88 123.48C189.096 122.772 189.413 122.098 189.82 121.48C190.236 120.829 190.748 120.246 191.34 119.75C191.902 119.267 192.528 118.863 193.2 118.55C193.873 118.228 194.586 117.999 195.32 117.87C195.952 117.747 196.597 117.703 197.24 117.74C197.88 117.767 198.514 117.867 199.13 118.04C200.542 118.376 201.846 119.064 202.92 120.04C203.748 120.862 204.274 121.941 204.41 123.1C204.531 124.128 204.439 125.169 204.14 126.16C203.825 127.249 203.41 128.307 202.9 129.32C202.46 130.25 201.38 132.49 199.99 135.05C198.6 137.712 197.001 140.26 195.21 142.67C192.76 145.82 190.32 147.96 188.33 147.67C186.34 147.38 184.85 144.55 184.49 137.87C184.459 137.579 184.488 137.286 184.576 137.007C184.663 136.728 184.808 136.47 185 136.25C185.378 135.847 185.898 135.607 186.45 135.58C187.002 135.575 187.537 135.774 187.95 136.14C188.37 136.521 188.622 137.053 188.65 137.62C188.78 140.2 189.2 141.32 189.73 141.51C190.26 141.7 190.94 141.03 191.73 140.02C193.393 137.771 194.881 135.397 196.18 132.92C197.48 130.5 198.51 128.37 198.94 127.47C199.293 126.763 199.594 126.031 199.84 125.28C200.029 124.762 200.111 124.211 200.08 123.66C200.021 123.35 199.841 123.077 199.58 122.9C199.104 122.551 198.569 122.29 198 122.13C197.673 122.05 197.337 122.006 197 122C196.665 121.981 196.33 122.002 196 122.06C195.633 122.125 195.276 122.239 194.94 122.4C194.606 122.562 194.291 122.76 194 122.99C193.742 123.217 193.513 123.476 193.32 123.76C193.133 124.033 192.997 124.338 192.92 124.66C192.849 124.904 192.809 125.156 192.8 125.41C192.756 125.668 192.756 125.932 192.8 126.19L192.91 126.16ZM201.15 84.82C202.24 76.08 203.71 69.48 212.4 63.75C218.62 68.67 221.91 71.63 223.4 84.92C218.81 86.02 214.73 90.92 212.3 98.52C210 91.09 206.24 86.6 201.15 84.82ZM226.55 83.82L224.88 76C227.7 73.58 232.61 72.26 237.43 71C237.426 74.0773 237.216 77.1509 236.8 80.2C233.194 80.806 229.724 82.0451 226.55 83.86V83.82ZM198.11 83.82L199.79 76C196.96 73.58 192.05 72.26 187.23 71C187.234 74.0773 187.444 77.1509 187.86 80.2C191.466 80.806 194.936 82.0451 198.11 83.86V83.82ZM183.3 82.21C184.64 97.52 194.51 106.75 211.09 109.46C210.54 90.46 197.89 85.08 183.3 82.21Z" fill="white"/>
</g>
</g>
<defs>
<filter id="filter0_d_284_1796" x="0.200001" y="0.200001" width="364.6" height="249.6" filterUnits="userSpaceOnUse" color-interpolation-filters="sRGB">
<feFlood flood-opacity="0" result="BackgroundImageFix"/>
<feColorMatrix in="SourceAlpha" type="matrix" values="0 0 0 0 0 0 0 0 0 0 0 0 0 0 0 0 0 0 127 0" result="hardAlpha"/>
<feOffset dy="4"/>
<feGaussianBlur stdDeviation="12.4"/>
<feComposite in2="hardAlpha" operator="out"/>
<feColorMatrix type="matrix" values="0 0 0 0 0 0 0 0 0 0 0 0 0 0 0 0 0 0 0.21 0"/>
<feBlend mode="normal" in2="BackgroundImageFix" result="effect1_dropShadow_284_1796"/>
<feBlend mode="normal" in="SourceGraphic" in2="effect1_dropShadow_284_1796" result="shape"/>
</filter>
<clipPath id="clip0_284_1796">
<rect width="365" height="250" fill="white"/>
</clipPath>
<clipPath id="clip1_284_1796">
<rect width="117.23" height="122.88" fill="white" transform="translate(124 60)"/>
</clipPath>
</defs>
</svg>
