<svg width="141" height="124" viewBox="0 0 141 124" fill="none" xmlns="http://www.w3.org/2000/svg">
<path d="M63.9078 4.3252V50.1862C63.9078 55.2818 59.029 66.579 39.5137 71.0025" stroke="#F97474" stroke-width="7" stroke-linecap="round"/>
<path d="M59.029 60.9196C59.7879 53.5471 56.5571 38.6071 37.5622 37.8265C13.8185 36.8507 3.08513 110.684 4.06089 116.863C5.03666 123.043 45.3684 120.441 59.029 102.227V76.5318" stroke="#F97474" stroke-width="7" stroke-linecap="round"/>
<path d="M81.7359 60.6039C80.977 53.2315 84.2078 38.2914 103.203 37.5108C126.946 36.535 137.68 110.368 136.704 116.548C135.728 122.728 95.3965 120.126 81.7359 101.911V76.2161" stroke="#F97474" stroke-width="7" stroke-linecap="round"/>
<path d="M76.918 4V48.8852C78.1106 56.0408 84.3988 70.352 100.011 70.352" stroke="#F97474" stroke-width="7" stroke-linecap="round"/>
<path d="M41.1399 83.037C46.9945 81.8444 60.8504 77.2475 69.4371 68.4005C76.0506 73.2793 91.4894 83.037 100.336 83.037" stroke="#F97474" stroke-width="7" stroke-linecap="round"/>
</svg>
