<svg width="365" height="250" viewBox="0 0 365 250" fill="none" xmlns="http://www.w3.org/2000/svg">
<g clip-path="url(#clip0_284_1789)">
<g filter="url(#filter0_d_284_1789)">
<path d="M299 21H66C43.3563 21 25 39.3563 25 62V180C25 202.644 43.3563 221 66 221H299C321.644 221 340 202.644 340 180V62C340 39.3563 321.644 21 299 21Z" fill="#F97474"/>
</g>
<path d="M198.761 126.211C198.861 126.741 198.731 127.271 198.441 127.681C198.151 128.091 197.711 128.401 197.171 128.501C196.641 128.601 196.111 128.471 195.701 128.181C195.291 127.891 194.981 127.451 194.881 126.911V126.891C194.771 126.311 194.741 125.741 194.761 125.191C194.781 124.611 194.881 124.051 195.021 123.521C195.221 122.801 195.541 122.121 195.931 121.511C196.341 120.881 196.851 120.311 197.421 119.821C197.971 119.361 198.591 118.961 199.251 118.651C199.911 118.341 200.611 118.111 201.331 117.981H201.351C201.961 117.871 202.591 117.821 203.221 117.851C203.841 117.881 204.471 117.981 205.081 118.151C206.761 118.621 207.961 119.291 208.791 120.111C209.641 120.961 210.101 121.961 210.261 123.081C210.401 124.051 210.281 125.071 209.991 126.111C209.711 127.121 209.281 128.161 208.771 129.221C208.331 130.151 207.251 132.401 205.871 134.951C204.481 137.511 202.781 140.391 201.091 142.571C198.731 145.611 196.361 147.671 194.401 147.341C192.421 147.001 191.001 144.291 190.641 137.821C190.611 137.281 190.811 136.771 191.151 136.401C191.491 136.031 191.971 135.781 192.511 135.751C193.051 135.721 193.561 135.921 193.931 136.261C194.311 136.601 194.551 137.081 194.581 137.621C194.741 140.461 195.171 141.671 195.761 141.861C196.291 142.041 197.101 141.291 197.971 140.161C199.531 138.151 201.121 135.451 202.431 133.021C203.751 130.581 204.781 128.431 205.201 127.531C205.581 126.731 205.911 125.971 206.121 125.291C206.321 124.651 206.421 124.071 206.351 123.611C206.311 123.311 206.151 123.021 205.821 122.761C205.441 122.451 204.861 122.171 204.011 121.941C203.681 121.851 203.351 121.801 203.031 121.781C202.691 121.761 202.361 121.791 202.031 121.851C201.641 121.921 201.271 122.041 200.921 122.211C200.571 122.371 200.251 122.581 199.951 122.831C199.671 123.071 199.421 123.341 199.231 123.641C199.041 123.931 198.901 124.241 198.801 124.581C198.731 124.831 198.691 125.091 198.681 125.371C198.691 125.651 198.711 125.921 198.761 126.211ZM187.931 76.5014L190.961 82.4114L199.991 72.3914C200.181 72.1814 200.501 72.1714 200.711 72.3514C200.881 72.5014 200.921 72.7314 200.841 72.9314L193.041 92.8614C192.941 93.1214 192.641 93.2514 192.381 93.1514C192.261 93.1014 192.171 93.0214 192.121 92.9214L189.011 87.7414L180.241 98.2014C180.061 98.4114 179.741 98.4414 179.531 98.2614C179.351 98.1114 179.301 97.8714 179.391 97.6714L187.011 76.5714C187.101 76.3114 187.391 76.1714 187.661 76.2614C187.771 76.3014 187.871 76.3914 187.931 76.5014ZM157.451 79.9714L163.291 83.7014L165.801 69.5314C165.851 69.2514 166.111 69.0714 166.391 69.1214C166.621 69.1614 166.781 69.3414 166.811 69.5614L170.991 91.9614C171.041 92.2314 170.861 92.5014 170.581 92.5514C170.461 92.5714 170.341 92.5514 170.241 92.4914L164.451 89.5314L162.331 103.851C162.291 104.131 162.031 104.321 161.751 104.281C161.531 104.251 161.371 104.081 161.331 103.881L156.641 80.4714C156.591 80.2014 156.761 79.9314 157.041 79.8714C157.191 79.8514 157.341 79.8914 157.451 79.9714ZM169.591 172.831C169.601 173.361 169.601 173.891 169.591 174.431C169.571 175.091 169.531 175.751 169.461 176.411C169.381 177.261 169.261 178.101 169.111 178.941C168.961 179.791 168.771 180.621 168.551 181.431C168.411 181.961 168.071 182.381 167.631 182.631C167.201 182.881 166.681 182.971 166.161 182.841C166.141 182.841 166.121 182.831 166.101 182.821C165.591 182.671 165.181 182.341 164.931 181.911C164.681 181.481 164.591 180.961 164.721 180.441L164.741 180.381C164.931 179.651 165.101 178.931 165.231 178.221C165.361 177.491 165.471 176.761 165.541 176.041C165.581 175.601 165.611 175.161 165.631 174.711C165.641 174.481 165.651 174.261 165.651 174.031C164.721 174.281 163.791 174.511 162.871 174.731C161.701 175.001 160.531 175.241 159.391 175.441C157.171 175.841 155.021 176.081 153.011 176.141C151.071 176.201 149.271 176.081 147.661 175.781C146.381 175.541 145.221 175.181 144.191 174.691C143.191 174.211 142.311 173.611 141.581 172.871C140.781 172.061 140.181 171.111 139.801 170.011C139.441 168.971 139.291 167.791 139.381 166.481C139.441 165.531 139.631 164.511 139.951 163.411C140.251 162.401 140.661 161.331 141.211 160.181C141.091 159.591 140.981 159.001 140.871 158.401C140.761 157.751 140.661 157.081 140.571 156.391C140.471 155.641 140.391 154.901 140.331 154.171C140.271 153.461 140.221 152.721 140.191 151.961L140.181 151.841V151.781L140.171 151.711C140.161 151.671 140.161 151.631 140.151 151.581C140.021 150.171 139.941 148.781 139.891 147.401C139.841 146.031 139.831 144.651 139.811 143.271L139.801 142.731C138.391 142.651 136.951 142.591 135.551 142.481C135.011 142.461 134.481 142.371 133.991 142.221L133.971 142.211C133.461 142.051 132.991 141.831 132.561 141.551C132.151 141.281 131.771 140.961 131.441 140.591C131.111 140.221 130.841 139.811 130.621 139.361C130.401 138.921 130.241 138.451 130.141 137.951C130.041 137.471 129.991 136.951 130.001 136.411C130.021 135.631 130.161 134.801 130.451 133.951C130.721 133.161 131.111 132.341 131.641 131.511L136.231 122.131C137.361 119.821 137.921 118.521 138.181 117.491C138.431 116.501 138.401 115.751 138.351 114.561V114.531C138.311 113.451 138.251 112.061 138.321 109.981C138.361 108.731 138.451 107.511 138.601 106.331C138.751 105.151 138.951 103.991 139.221 102.861C139.431 102.001 139.671 101.161 139.961 100.351C140.191 99.7114 140.441 99.0814 140.731 98.4614L132.481 94.8614C131.981 94.6414 131.621 94.2414 131.431 93.7714C131.251 93.3014 131.241 92.7614 131.461 92.2614C131.491 92.1914 131.521 92.1214 131.561 92.0614L131.581 92.0214C131.611 91.9714 131.641 91.9214 131.671 91.8814C141.021 79.1314 150.961 70.7014 160.841 65.7314C172.061 60.0914 183.211 58.9014 193.371 60.9114C198.841 61.9914 204.021 63.9914 208.761 66.7314C213.701 69.5814 218.171 73.2114 222.011 77.4214C225.801 81.5714 228.981 86.2714 231.401 91.3114C233.771 96.2614 235.411 101.541 236.161 106.941C237.481 116.401 236.091 126.231 231.221 135.311C226.871 143.411 219.761 150.921 209.321 157.041C209.151 157.141 208.981 157.211 208.801 157.251L208.771 157.261C208.781 158.511 208.821 159.761 208.891 160.991C208.971 162.351 209.101 163.711 209.261 165.041C209.571 167.571 210.021 170.011 210.601 172.371C211.181 174.741 211.901 177.031 212.731 179.251C212.921 179.761 212.891 180.301 212.681 180.761C212.471 181.221 212.091 181.601 211.581 181.791H211.571C211.061 181.981 210.531 181.951 210.071 181.741C209.611 181.531 209.231 181.151 209.041 180.641C208.151 178.271 207.381 175.821 206.761 173.311C206.141 170.791 205.661 168.191 205.331 165.521C205.011 162.861 204.831 160.111 204.811 157.271C204.791 154.431 204.941 151.511 205.251 148.501C205.311 147.961 205.581 147.491 205.971 147.171C206.361 146.851 206.871 146.681 207.411 146.741C207.951 146.801 208.421 147.071 208.741 147.461C209.061 147.851 209.231 148.361 209.171 148.901C209.091 149.691 209.021 150.491 208.961 151.291C208.931 151.771 208.901 152.231 208.871 152.691C217.861 147.101 224.021 140.401 227.821 133.211C232.181 124.951 233.421 116.051 232.231 107.481C231.531 102.481 230.021 97.5814 227.811 92.9914C225.561 88.3114 222.611 83.9414 219.081 80.0814C215.521 76.1814 211.381 72.8114 206.801 70.1714C202.421 67.6414 197.631 65.7914 192.581 64.7914C183.361 62.9714 173.231 64.0314 162.981 69.0814C154.011 73.5014 144.941 80.9814 136.301 92.2614L144.101 95.6614C144.151 95.6814 144.201 95.7014 144.271 95.7314C144.321 95.7514 144.371 95.7814 144.431 95.8214C144.901 96.1014 145.211 96.5414 145.331 97.0414C145.451 97.5314 145.391 98.0714 145.111 98.5314C144.631 99.3214 144.221 100.161 143.871 101.041C143.521 101.931 143.231 102.851 143.001 103.801C142.761 104.771 142.591 105.791 142.461 106.851C142.331 107.921 142.251 109.001 142.211 110.111C142.181 111.081 142.181 111.901 142.191 112.601C142.201 113.291 142.221 113.881 142.251 114.411C142.311 115.991 142.351 116.981 142.031 118.301C141.721 119.591 141.061 121.151 139.731 123.871L135.121 133.301C135.101 133.351 135.071 133.401 135.051 133.451C135.051 133.471 135.021 133.521 134.991 133.571C134.641 134.111 134.381 134.621 134.211 135.111C134.031 135.611 133.941 136.071 133.931 136.491C133.931 136.711 133.941 136.921 133.981 137.111C134.021 137.301 134.081 137.471 134.151 137.621L134.161 137.641C134.221 137.761 134.301 137.881 134.391 137.981C134.481 138.081 134.591 138.171 134.701 138.251C134.841 138.331 134.991 138.401 135.161 138.461C135.331 138.511 135.521 138.541 135.711 138.551C137.441 138.551 139.401 138.761 141.151 138.861C141.221 138.841 141.291 138.821 141.371 138.811C141.471 138.791 141.591 138.781 141.711 138.781H141.821C141.841 138.781 141.871 138.781 141.891 138.781L146.811 139.201C147.351 139.241 147.831 139.511 148.151 139.891C148.481 140.281 148.661 140.791 148.611 141.331C148.571 141.871 148.301 142.351 147.921 142.671C147.531 143.001 147.021 143.181 146.481 143.131C145.581 143.051 144.651 143.021 143.741 142.971V143.231C143.761 144.371 143.771 145.511 143.801 146.661C143.831 147.621 143.871 148.581 143.931 149.571C144.511 149.531 145.091 149.501 145.641 149.501C146.381 149.501 147.101 149.531 147.791 149.591C148.781 149.681 149.711 149.841 150.581 150.051C151.501 150.271 152.361 150.561 153.161 150.891C153.661 151.101 154.031 151.491 154.231 151.961C154.421 152.431 154.441 152.971 154.231 153.471C154.021 153.971 153.631 154.341 153.161 154.541C152.691 154.731 152.151 154.751 151.651 154.541C151.021 154.281 150.351 154.051 149.631 153.881C148.941 153.711 148.211 153.591 147.441 153.521C146.861 153.471 146.261 153.441 145.631 153.441C145.171 153.441 144.701 153.461 144.211 153.501C144.241 153.821 144.261 154.141 144.291 154.451C144.341 154.931 144.391 155.411 144.451 155.881C144.541 156.531 144.641 157.221 144.771 157.921C144.891 158.601 145.031 159.291 145.181 159.991V160.011C145.231 160.261 145.231 160.501 145.191 160.741C145.151 160.981 145.061 161.211 144.941 161.421C144.431 162.461 144.041 163.411 143.761 164.281C143.481 165.171 143.321 165.981 143.281 166.701C143.231 167.441 143.311 168.081 143.491 168.641C143.671 169.201 143.971 169.681 144.361 170.081C144.781 170.511 145.321 170.871 145.961 171.161C146.651 171.471 147.451 171.711 148.351 171.881C149.721 172.141 151.281 172.231 152.971 172.181C154.741 172.121 156.661 171.901 158.661 171.541C160.621 171.191 162.711 170.721 164.811 170.151C166.711 169.631 168.621 169.011 170.461 168.301C172.091 167.671 173.671 166.961 175.111 166.181C176.441 165.461 177.661 164.681 178.711 163.831C179.781 162.981 180.561 161.861 181.171 160.651C181.801 159.421 182.271 158.091 182.701 156.871L183.131 155.671L183.391 154.971C183.921 153.511 184.641 151.521 185.521 149.671C186.431 147.771 187.511 146.001 188.751 145.051C189.181 144.721 189.701 144.591 190.201 144.661C190.701 144.721 191.181 144.981 191.511 145.411C191.841 145.841 191.971 146.361 191.901 146.861C191.841 147.361 191.581 147.841 191.151 148.171C190.401 148.751 189.621 150.131 188.921 151.681C188.201 153.271 187.551 155.041 187.081 156.341C186.861 156.951 186.641 157.561 186.421 158.171C185.911 159.611 185.361 161.181 184.561 162.691C183.751 164.231 182.681 165.701 181.161 166.921C179.941 167.891 178.551 168.791 177.051 169.611C175.431 170.491 173.691 171.281 171.881 171.981C171.451 172.151 171.011 172.311 170.561 172.471C170.271 172.601 169.931 172.711 169.591 172.831ZM203.971 94.4814L203.481 101.641L217.481 96.9214C217.751 96.8314 218.031 96.9714 218.121 97.2414C218.191 97.4414 218.121 97.6614 217.961 97.7914L199.851 112.601C199.631 112.781 199.311 112.751 199.141 112.531C199.061 112.431 199.021 112.301 199.031 112.181L198.841 105.531L185.061 110.941C184.801 111.041 184.511 110.911 184.401 110.651C184.321 110.441 184.391 110.201 184.561 110.061L203.131 94.0514C203.341 93.8714 203.661 93.8914 203.841 94.1014C203.941 94.2214 203.981 94.3514 203.971 94.4814ZM166.081 113.741C166.591 113.561 167.131 113.601 167.591 113.821C168.051 114.041 168.421 114.431 168.611 114.941C168.791 115.451 168.751 115.991 168.531 116.451C168.311 116.911 167.921 117.281 167.411 117.471C166.521 117.791 165.631 118.061 164.751 118.281C164.131 118.441 163.501 118.571 162.881 118.661C162.911 118.731 162.941 118.811 162.971 118.881C163.091 119.221 163.161 119.581 163.161 119.961C163.161 120.821 162.811 121.591 162.251 122.161C161.691 122.721 160.911 123.071 160.051 123.071C159.191 123.071 158.421 122.721 157.851 122.161C157.291 121.601 156.941 120.821 156.941 119.961C156.941 119.581 157.011 119.211 157.141 118.871C157.171 118.791 157.211 118.701 157.241 118.621C156.751 118.521 156.261 118.401 155.781 118.251C155.041 118.021 154.321 117.721 153.601 117.351C153.121 117.101 152.781 116.681 152.631 116.201C152.481 115.721 152.501 115.181 152.751 114.701C153.001 114.221 153.421 113.881 153.901 113.731C154.381 113.581 154.921 113.611 155.401 113.851C156.191 114.261 157.001 114.551 157.831 114.721C158.661 114.901 159.511 114.971 160.371 114.951C161.261 114.931 162.191 114.801 163.141 114.601C164.111 114.391 165.081 114.101 166.081 113.741Z" fill="white"/>
</g>
<defs>
<filter id="filter0_d_284_1789" x="0.200001" y="0.200001" width="364.6" height="249.6" filterUnits="userSpaceOnUse" color-interpolation-filters="sRGB">
<feFlood flood-opacity="0" result="BackgroundImageFix"/>
<feColorMatrix in="SourceAlpha" type="matrix" values="0 0 0 0 0 0 0 0 0 0 0 0 0 0 0 0 0 0 127 0" result="hardAlpha"/>
<feOffset dy="4"/>
<feGaussianBlur stdDeviation="12.4"/>
<feComposite in2="hardAlpha" operator="out"/>
<feColorMatrix type="matrix" values="0 0 0 0 0 0 0 0 0 0 0 0 0 0 0 0 0 0 0.21 0"/>
<feBlend mode="normal" in2="BackgroundImageFix" result="effect1_dropShadow_284_1789"/>
<feBlend mode="normal" in="SourceGraphic" in2="effect1_dropShadow_284_1789" result="shape"/>
</filter>
<clipPath id="clip0_284_1789">
<rect width="365" height="250" fill="white"/>
</clipPath>
</defs>
</svg>
