<svg width="107" height="123" viewBox="0 0 107 123" fill="none" xmlns="http://www.w3.org/2000/svg">
<path d="M68.7613 66.2114C68.8613 66.7414 68.7313 67.2714 68.4413 67.6814C68.1513 68.0914 67.7113 68.4014 67.1713 68.5014C66.6413 68.6014 66.1113 68.4714 65.7013 68.1814C65.2913 67.8914 64.9813 67.4514 64.8813 66.9114V66.8914C64.7713 66.3114 64.7413 65.7414 64.7613 65.1914C64.7813 64.6114 64.8813 64.0514 65.0213 63.5214C65.2213 62.8014 65.5413 62.1214 65.9313 61.5114C66.3413 60.8814 66.8513 60.3114 67.4213 59.8214C67.9713 59.3614 68.5913 58.9614 69.2513 58.6514C69.9113 58.3414 70.6113 58.1114 71.3313 57.9814H71.3513C71.9613 57.8714 72.5913 57.8214 73.2213 57.8514C73.8413 57.8814 74.4713 57.9814 75.0813 58.1514C76.7613 58.6214 77.9613 59.2914 78.7913 60.1114C79.6413 60.9614 80.1013 61.9614 80.2613 63.0814C80.4013 64.0514 80.2813 65.0714 79.9913 66.1114C79.7113 67.1214 79.2813 68.1614 78.7713 69.2214C78.3313 70.1514 77.2513 72.4014 75.8713 74.9514C74.4813 77.5114 72.7813 80.3914 71.0913 82.5714C68.7313 85.6114 66.3613 87.6714 64.4013 87.3414C62.4213 87.0014 61.0013 84.2914 60.6413 77.8214C60.6113 77.2814 60.8113 76.7714 61.1513 76.4014C61.4913 76.0314 61.9713 75.7814 62.5113 75.7514C63.0513 75.7214 63.5613 75.9214 63.9313 76.2614C64.3113 76.6014 64.5513 77.0814 64.5813 77.6214C64.7413 80.4614 65.1713 81.6714 65.7613 81.8614C66.2913 82.0414 67.1013 81.2914 67.9713 80.1614C69.5313 78.1514 71.1213 75.4514 72.4313 73.0214C73.7513 70.5814 74.7813 68.4314 75.2013 67.5314C75.5813 66.7314 75.9113 65.9714 76.1213 65.2914C76.3213 64.6514 76.4213 64.0714 76.3513 63.6114C76.3113 63.3114 76.1513 63.0214 75.8213 62.7614C75.4413 62.4514 74.8613 62.1714 74.0113 61.9414C73.6813 61.8514 73.3513 61.8014 73.0313 61.7814C72.6913 61.7614 72.3613 61.7914 72.0313 61.8514C71.6413 61.9214 71.2713 62.0414 70.9213 62.2114C70.5713 62.3714 70.2513 62.5814 69.9513 62.8314C69.6713 63.0714 69.4213 63.3414 69.2313 63.6414C69.0413 63.9314 68.9013 64.2414 68.8013 64.5814C68.7313 64.8314 68.6913 65.0914 68.6813 65.3714C68.6913 65.6514 68.7113 65.9214 68.7613 66.2114ZM57.9313 16.5014L60.9613 22.4114L69.9913 12.3914C70.1813 12.1814 70.5013 12.1714 70.7113 12.3514C70.8813 12.5014 70.9213 12.7314 70.8413 12.9314L63.0413 32.8614C62.9413 33.1214 62.6413 33.2514 62.3813 33.1514C62.2613 33.1014 62.1713 33.0214 62.1213 32.9214L59.0113 27.7414L50.2413 38.2014C50.0613 38.4114 49.7413 38.4414 49.5313 38.2614C49.3513 38.1114 49.3013 37.8714 49.3913 37.6714L57.0113 16.5714C57.1013 16.3114 57.3913 16.1714 57.6613 16.2614C57.7713 16.3014 57.8713 16.3914 57.9313 16.5014ZM27.4513 19.9714L33.2913 23.7014L35.8013 9.53136C35.8513 9.25136 36.1113 9.07136 36.3913 9.12136C36.6213 9.16136 36.7813 9.34136 36.8113 9.56136L40.9913 31.9614C41.0413 32.2314 40.8613 32.5014 40.5813 32.5514C40.4613 32.5714 40.3413 32.5514 40.2413 32.4914L34.4513 29.5314L32.3313 43.8514C32.2913 44.1314 32.0313 44.3214 31.7513 44.2814C31.5313 44.2514 31.3713 44.0814 31.3313 43.8814L26.6413 20.4714C26.5913 20.2014 26.7613 19.9314 27.0413 19.8714C27.1913 19.8514 27.3413 19.8914 27.4513 19.9714ZM39.5913 112.831C39.6013 113.361 39.6013 113.891 39.5913 114.431C39.5713 115.091 39.5313 115.751 39.4613 116.411C39.3813 117.261 39.2613 118.101 39.1113 118.941C38.9613 119.791 38.7713 120.621 38.5513 121.431C38.4113 121.961 38.0713 122.381 37.6313 122.631C37.2013 122.881 36.6813 122.971 36.1613 122.841C36.1413 122.841 36.1213 122.831 36.1013 122.821C35.5913 122.671 35.1813 122.341 34.9313 121.911C34.6813 121.481 34.5913 120.961 34.7213 120.441L34.7413 120.381C34.9313 119.651 35.1013 118.931 35.2313 118.221C35.3613 117.491 35.4713 116.761 35.5413 116.041C35.5813 115.601 35.6113 115.161 35.6313 114.711C35.6413 114.481 35.6513 114.261 35.6513 114.031C34.7213 114.281 33.7913 114.511 32.8713 114.731C31.7013 115.001 30.5313 115.241 29.3913 115.441C27.1713 115.841 25.0213 116.081 23.0113 116.141C21.0713 116.201 19.2713 116.081 17.6613 115.781C16.3813 115.541 15.2213 115.181 14.1913 114.691C13.1913 114.211 12.3113 113.611 11.5813 112.871C10.7813 112.061 10.1813 111.111 9.80126 110.011C9.44126 108.971 9.29126 107.791 9.38126 106.481C9.44126 105.531 9.63126 104.511 9.95126 103.411C10.2513 102.401 10.6613 101.331 11.2113 100.181C11.0913 99.5914 10.9813 99.0014 10.8713 98.4014C10.7613 97.7514 10.6613 97.0814 10.5713 96.3914C10.4713 95.6414 10.3913 94.9014 10.3313 94.1714C10.2713 93.4614 10.2213 92.7214 10.1913 91.9614L10.1813 91.8414V91.7814L10.1713 91.7114C10.1613 91.6714 10.1613 91.6314 10.1513 91.5814C10.0213 90.1714 9.94126 88.7814 9.89126 87.4014C9.84126 86.0314 9.83126 84.6514 9.81126 83.2714L9.80126 82.7314C8.39126 82.6514 6.95126 82.5914 5.55126 82.4814C5.01126 82.4614 4.48126 82.3714 3.99126 82.2214L3.97126 82.2114C3.46126 82.0514 2.99126 81.8314 2.56126 81.5514C2.15126 81.2814 1.77126 80.9614 1.44126 80.5914C1.11126 80.2214 0.841256 79.8114 0.621256 79.3614C0.401256 78.9214 0.241256 78.4514 0.141256 77.9514C0.0412559 77.4714 -0.00874415 76.9514 0.00125585 76.4114C0.0212558 75.6314 0.161256 74.8014 0.451256 73.9514C0.721256 73.1614 1.11126 72.3414 1.64126 71.5114L6.23126 62.1314C7.36126 59.8214 7.92126 58.5214 8.18126 57.4914C8.43126 56.5014 8.40126 55.7514 8.35126 54.5614V54.5314C8.31126 53.4514 8.25126 52.0614 8.32126 49.9814C8.36126 48.7314 8.45126 47.5114 8.60126 46.3314C8.75126 45.1514 8.95126 43.9914 9.22126 42.8614C9.43126 42.0014 9.67126 41.1614 9.96126 40.3514C10.1913 39.7114 10.4413 39.0814 10.7313 38.4614L2.48126 34.8614C1.98126 34.6414 1.62126 34.2414 1.43126 33.7714C1.25126 33.3014 1.24126 32.7614 1.46126 32.2614C1.49126 32.1914 1.52126 32.1214 1.56126 32.0614L1.58126 32.0214C1.61126 31.9714 1.64126 31.9214 1.67126 31.8814C11.0213 19.1314 20.9613 10.7014 30.8413 5.73136C42.0613 0.0913563 53.2113 -1.09864 63.3713 0.911356C68.8413 1.99136 74.0213 3.99136 78.7613 6.73136C83.7013 9.58136 88.1713 13.2114 92.0113 17.4214C95.8013 21.5714 98.9813 26.2714 101.401 31.3114C103.771 36.2614 105.411 41.5414 106.161 46.9414C107.481 56.4014 106.091 66.2314 101.221 75.3114C96.8713 83.4114 89.7613 90.9214 79.3213 97.0414C79.1513 97.1414 78.9813 97.2114 78.8013 97.2514L78.7713 97.2614C78.7813 98.5114 78.8213 99.7614 78.8913 100.991C78.9713 102.351 79.1013 103.711 79.2613 105.041C79.5713 107.571 80.0213 110.011 80.6013 112.371C81.1813 114.741 81.9013 117.031 82.7313 119.251C82.9213 119.761 82.8913 120.301 82.6813 120.761C82.4713 121.221 82.0913 121.601 81.5813 121.791H81.5713C81.0613 121.981 80.5313 121.951 80.0713 121.741C79.6113 121.531 79.2313 121.151 79.0413 120.641C78.1513 118.271 77.3813 115.821 76.7613 113.311C76.1413 110.791 75.6613 108.191 75.3313 105.521C75.0113 102.861 74.8313 100.111 74.8113 97.2714C74.7913 94.4314 74.9413 91.5114 75.2513 88.5014C75.3113 87.9614 75.5813 87.4914 75.9713 87.1714C76.3613 86.8514 76.8713 86.6814 77.4113 86.7414C77.9513 86.8014 78.4213 87.0714 78.7413 87.4614C79.0613 87.8514 79.2313 88.3614 79.1713 88.9014C79.0913 89.6914 79.0213 90.4914 78.9613 91.2914C78.9313 91.7714 78.9013 92.2314 78.8713 92.6914C87.8613 87.1014 94.0213 80.4014 97.8213 73.2114C102.181 64.9514 103.421 56.0514 102.231 47.4814C101.531 42.4814 100.021 37.5814 97.8113 32.9914C95.5613 28.3114 92.6113 23.9414 89.0813 20.0814C85.5213 16.1814 81.3813 12.8114 76.8013 10.1714C72.4213 7.64136 67.6313 5.79136 62.5813 4.79136C53.3613 2.97136 43.2313 4.03136 32.9813 9.08136C24.0113 13.5014 14.9413 20.9814 6.30126 32.2614L14.1013 35.6614C14.1513 35.6814 14.2013 35.7014 14.2713 35.7314C14.3213 35.7514 14.3713 35.7814 14.4313 35.8214C14.9013 36.1014 15.2113 36.5414 15.3313 37.0414C15.4513 37.5314 15.3913 38.0714 15.1113 38.5314C14.6313 39.3214 14.2213 40.1614 13.8713 41.0414C13.5213 41.9314 13.2313 42.8514 13.0013 43.8014C12.7613 44.7714 12.5913 45.7914 12.4613 46.8514C12.3313 47.9214 12.2513 49.0014 12.2113 50.1114C12.1813 51.0814 12.1813 51.9014 12.1913 52.6014C12.2013 53.2914 12.2213 53.8814 12.2513 54.4114C12.3113 55.9914 12.3513 56.9814 12.0313 58.3014C11.7213 59.5914 11.0613 61.1514 9.73126 63.8714L5.12126 73.3014C5.10126 73.3514 5.07126 73.4014 5.05126 73.4514C5.05126 73.4714 5.02126 73.5214 4.99126 73.5714C4.64126 74.1114 4.38126 74.6214 4.21126 75.1114C4.03126 75.6114 3.94126 76.0714 3.93126 76.4914C3.93126 76.7114 3.94126 76.9214 3.98126 77.1114C4.02126 77.3014 4.08126 77.4714 4.15126 77.6214L4.16126 77.6414C4.22126 77.7614 4.30126 77.8814 4.39126 77.9814C4.48126 78.0814 4.59126 78.1714 4.70126 78.2514C4.84126 78.3314 4.99126 78.4014 5.16126 78.4614C5.33126 78.5114 5.52126 78.5414 5.71126 78.5514C7.44126 78.5514 9.40126 78.7614 11.1513 78.8614C11.2213 78.8414 11.2913 78.8214 11.3713 78.8114C11.4713 78.7914 11.5913 78.7814 11.7113 78.7814H11.8213C11.8413 78.7814 11.8713 78.7814 11.8913 78.7814L16.8113 79.2014C17.3513 79.2414 17.8313 79.5114 18.1513 79.8914C18.4813 80.2814 18.6613 80.7914 18.6113 81.3314C18.5713 81.8714 18.3013 82.3514 17.9213 82.6714C17.5313 83.0014 17.0213 83.1814 16.4813 83.1314C15.5813 83.0514 14.6513 83.0214 13.7413 82.9714V83.2314C13.7613 84.3714 13.7713 85.5114 13.8013 86.6614C13.8313 87.6214 13.8713 88.5814 13.9313 89.5714C14.5113 89.5314 15.0913 89.5014 15.6413 89.5014C16.3813 89.5014 17.1013 89.5314 17.7913 89.5914C18.7813 89.6814 19.7113 89.8414 20.5813 90.0514C21.5013 90.2714 22.3613 90.5614 23.1613 90.8914C23.6613 91.1014 24.0313 91.4914 24.2313 91.9614C24.4213 92.4314 24.4413 92.9714 24.2313 93.4714C24.0213 93.9714 23.6313 94.3414 23.1613 94.5414C22.6913 94.7314 22.1513 94.7514 21.6513 94.5414C21.0213 94.2814 20.3513 94.0514 19.6313 93.8814C18.9413 93.7114 18.2113 93.5914 17.4413 93.5214C16.8613 93.4714 16.2613 93.4414 15.6313 93.4414C15.1713 93.4414 14.7013 93.4614 14.2113 93.5014C14.2413 93.8214 14.2613 94.1414 14.2913 94.4514C14.3413 94.9314 14.3913 95.4114 14.4513 95.8814C14.5413 96.5314 14.6413 97.2214 14.7713 97.9214C14.8913 98.6014 15.0313 99.2914 15.1813 99.9914V100.011C15.2313 100.261 15.2313 100.501 15.1913 100.741C15.1513 100.981 15.0613 101.211 14.9413 101.421C14.4313 102.461 14.0413 103.411 13.7613 104.281C13.4813 105.171 13.3213 105.981 13.2813 106.701C13.2313 107.441 13.3113 108.081 13.4913 108.641C13.6713 109.201 13.9713 109.681 14.3613 110.081C14.7813 110.511 15.3213 110.871 15.9613 111.161C16.6513 111.471 17.4513 111.711 18.3513 111.881C19.7213 112.141 21.2813 112.231 22.9713 112.181C24.7413 112.121 26.6613 111.901 28.6613 111.541C30.6213 111.191 32.7113 110.721 34.8113 110.151C36.7113 109.631 38.6213 109.011 40.4613 108.301C42.0913 107.671 43.6713 106.961 45.1113 106.181C46.4413 105.461 47.6613 104.681 48.7113 103.831C49.7813 102.981 50.5613 101.861 51.1713 100.651C51.8013 99.4214 52.2713 98.0914 52.7013 96.8714L53.1313 95.6714L53.3913 94.9714C53.9213 93.5114 54.6413 91.5214 55.5213 89.6714C56.4313 87.7714 57.5113 86.0014 58.7513 85.0514C59.1813 84.7214 59.7013 84.5914 60.2013 84.6614C60.7013 84.7214 61.1813 84.9814 61.5113 85.4114C61.8413 85.8414 61.9713 86.3614 61.9013 86.8614C61.8413 87.3614 61.5813 87.8414 61.1513 88.1714C60.4013 88.7514 59.6213 90.1314 58.9213 91.6814C58.2013 93.2714 57.5513 95.0414 57.0813 96.3414C56.8613 96.9514 56.6413 97.5614 56.4213 98.1714C55.9113 99.6114 55.3613 101.181 54.5613 102.691C53.7513 104.231 52.6813 105.701 51.1613 106.921C49.9413 107.891 48.5513 108.791 47.0513 109.611C45.4313 110.491 43.6913 111.281 41.8813 111.981C41.4513 112.151 41.0113 112.311 40.5613 112.471C40.2713 112.601 39.9313 112.711 39.5913 112.831ZM73.9713 34.4814L73.4813 41.6414L87.4813 36.9214C87.7513 36.8314 88.0313 36.9714 88.1213 37.2414C88.1913 37.4414 88.1213 37.6614 87.9613 37.7914L69.8513 52.6014C69.6313 52.7814 69.3113 52.7514 69.1413 52.5314C69.0613 52.4314 69.0213 52.3014 69.0313 52.1814L68.8413 45.5314L55.0613 50.9414C54.8013 51.0414 54.5113 50.9114 54.4013 50.6514C54.3213 50.4414 54.3913 50.2014 54.5613 50.0614L73.1313 34.0514C73.3413 33.8714 73.6613 33.8914 73.8413 34.1014C73.9413 34.2214 73.9813 34.3514 73.9713 34.4814ZM36.0813 53.7414C36.5913 53.5614 37.1313 53.6014 37.5913 53.8214C38.0513 54.0414 38.4213 54.4314 38.6113 54.9414C38.7913 55.4514 38.7513 55.9914 38.5313 56.4514C38.3113 56.9114 37.9213 57.2814 37.4113 57.4714C36.5213 57.7914 35.6313 58.0614 34.7513 58.2814C34.1313 58.4414 33.5013 58.5714 32.8813 58.6614C32.9113 58.7314 32.9413 58.8114 32.9713 58.8814C33.0913 59.2214 33.1613 59.5814 33.1613 59.9614C33.1613 60.8214 32.8113 61.5914 32.2513 62.1614C31.6913 62.7214 30.9113 63.0714 30.0513 63.0714C29.1913 63.0714 28.4213 62.7214 27.8513 62.1614C27.2913 61.6014 26.9413 60.8214 26.9413 59.9614C26.9413 59.5814 27.0113 59.2114 27.1413 58.8714C27.1713 58.7914 27.2113 58.7014 27.2413 58.6214C26.7513 58.5214 26.2613 58.4014 25.7813 58.2514C25.0413 58.0214 24.3213 57.7214 23.6013 57.3514C23.1213 57.1014 22.7813 56.6814 22.6313 56.2014C22.4813 55.7214 22.5013 55.1814 22.7513 54.7014C23.0013 54.2214 23.4213 53.8814 23.9013 53.7314C24.3813 53.5814 24.9213 53.6114 25.4013 53.8514C26.1913 54.2614 27.0013 54.5514 27.8313 54.7214C28.6613 54.9014 29.5113 54.9714 30.3713 54.9514C31.2613 54.9314 32.1913 54.8014 33.1413 54.6014C34.1113 54.3914 35.0813 54.1014 36.0813 53.7414Z" fill="#F97474"/>
</svg>
